<svg xmlns="http://www.w3.org/2000/svg" data-name="Layer 1" viewBox="0 0 5 6.25" x="0px" y="0px"><title>icon</title><g><path d="M2.47585,2.92539l-1.05209-1.647H3.52793ZM1.63837,1.396l.83748,1.311.83748-1.311Z" fill="#000000"/><path d="M3.52793,3.67308H1.42376l1.05209-1.647ZM1.63837,3.55552h1.675l-.83748-1.311Z" fill="#000000"/><path d="M3.513,4.41262H1.40886L2.461,2.76564ZM1.62347,4.29505H3.29841L2.461,2.984Z" fill="#000000"/><path d="M2.461,2.23436,1.40892.58738H3.51307ZM1.62353.70495,2.461,2.016l.83748-1.311Z" fill="#000000"/><polygon points="0.703 3.671 0.604 3.607 1.331 2.48 0.604 1.343 0.703 1.28 1.471 2.48 0.703 3.671" fill="#000000"/><polygon points="3.825 3.67 3.057 2.47 3.825 1.28 3.924 1.344 3.197 2.47 3.924 3.607 3.825 3.67" fill="#000000"/><polygon points="1.148 3.671 1.049 3.607 1.776 2.48 1.049 1.343 1.148 1.28 1.916 2.48 1.148 3.671" fill="#000000"/><polygon points="4.297 3.671 3.529 2.48 4.297 1.28 4.396 1.343 3.669 2.48 4.396 3.607 4.297 3.671" fill="#000000"/></g><text x="0" y="20" fill="#000000" font-size="5px" font-weight="bold" font-family="'Helvetica Neue', Helvetica, Arial-Unicode, Arial, Sans-serif">Created by Alice Noir</text><text x="0" y="25" fill="#000000" font-size="5px" font-weight="bold" font-family="'Helvetica Neue', Helvetica, Arial-Unicode, Arial, Sans-serif">from the Noun Project</text></svg>