<svg xmlns="http://www.w3.org/2000/svg" xmlns:xlink="http://www.w3.org/1999/xlink" version="1.1" x="0px" y="0px" viewBox="0 0 100 125" enable-background="new 0 0 100 100" xml:space="preserve"><g><path d="M92.984,77.558H7.016C5.902,77.558,5,76.654,5,75.541V11.017C5,9.903,5.902,9,7.016,9h85.969C94.098,9,95,9.903,95,11.017   v64.524C95,76.654,94.098,77.558,92.984,77.558z M9.029,73.524h81.941V13.033H9.029V73.524z"/></g><g><path d="M83.582,68.147H16.418c-1.112,0-2.016-0.903-2.016-2.017V20.426c0-1.113,0.903-2.016,2.016-2.016h67.164   c1.112,0,2.016,0.902,2.016,2.016v45.705C85.598,67.244,84.694,68.147,83.582,68.147z M18.433,64.115h63.135V22.442H18.433V64.115z   "/></g><g><path d="M59.402,91H40.598c-1.113,0-2.016-0.903-2.016-2.017V75.541c0-1.113,0.902-2.017,2.016-2.017h18.805   c1.113,0,2.016,0.903,2.016,2.017v13.442C61.418,90.097,60.516,91,59.402,91z M42.611,86.967h14.777v-9.409H42.611V86.967z"/></g><g><rect x="16.418" y="86.967" width="67.164" height="4.033"/></g><g><path d="M41.964,54.219l-9.508-9.515c-0.787-0.788-0.787-2.063,0-2.851l9.508-9.516l2.849,2.852l-8.082,8.09l8.082,8.088   L41.964,54.219z"/></g><g><path d="M58.036,54.219l-2.849-2.852l8.082-8.088l-8.082-8.09l2.849-2.852l9.508,9.516c0.787,0.787,0.787,2.063,0,2.851   L58.036,54.219z"/></g><g><rect x="47.984" y="33.53" transform="matrix(0.9761 0.2175 -0.2175 0.9761 10.6098 -9.8387)" width="4.032" height="19.497"/></g><text x="0" y="115" fill="#000000" font-size="5px" font-weight="bold" font-family="'Helvetica Neue', Helvetica, Arial-Unicode, Arial, Sans-serif">Created by Royyan Wijaya</text><text x="0" y="120" fill="#000000" font-size="5px" font-weight="bold" font-family="'Helvetica Neue', Helvetica, Arial-Unicode, Arial, Sans-serif">from the Noun Project</text></svg>