<svg xmlns="http://www.w3.org/2000/svg" xmlns:xlink="http://www.w3.org/1999/xlink" version="1.2" baseProfile="tiny" x="0px" y="0px" viewBox="0 0 100 125" xml:space="preserve"><g><path d="M50,0.5C22.7,0.5,0.5,22.7,0.5,50S22.7,99.5,50,99.5S99.5,77.3,99.5,50S77.3,0.5,50,0.5z M28.8,89.2c0-1.4,1.1-2.5,2.5-2.5   c1.4,0,2.5,1.1,2.5,2.5s-1.1,2.5-2.5,2.5S28.8,90.6,28.8,89.2z M63.5,90.5c0-1.4,1.1-2.5,2.5-2.5s2.5,1.1,2.5,2.5S67.4,93,66,93   S63.5,91.9,63.5,90.5z M80.4,85.2l-5.7-9.1c0.3-0.7,0.5-1.5,0.5-2.3c0-3-2.4-5.4-5.4-5.5L62.2,56c0.3,0.1,0.6,0,0.9-0.1l9.8-4.9v11   c0,0.8,0.7,1.5,1.5,1.5S76,62.8,76,62V50.9l9.8,4.9c0.2,0.1,0.4,0.2,0.7,0.2c0.5,0,1.1-0.3,1.3-0.8c0.4-0.7,0.1-1.6-0.7-2L76,47.6   v-6.3l8.7,5.5c0.2,0.2,0.5,0.2,0.8,0.2c0.5,0,1-0.2,1.3-0.7c0.4-0.7,0.2-1.6-0.5-2.1L76,37.7v-5.1l6.6,5.1c0.3,0.2,0.6,0.3,0.9,0.3   c0.4,0,0.9-0.2,1.2-0.6c0.5-0.7,0.4-1.6-0.3-2.1L76,28.8v-3.6l3.4,3.4c0.3,0.3,0.7,0.4,1.1,0.4s0.8-0.1,1.1-0.4   c0.6-0.6,0.6-1.5,0-2.1l-6-6c-0.6-0.6-1.5-0.6-2.1,0l-6,6c-0.6,0.6-0.6,1.5,0,2.1s1.5,0.6,2.1,0l3.4-3.4v3.6l-8.4,6.5   c-0.7,0.5-0.8,1.5-0.3,2.1c0.5,0.7,1.5,0.8,2.1,0.3l6.6-5.1v5.1l-10.3,6.6c-0.7,0.4-0.9,1.4-0.5,2.1c0.4,0.7,1.4,0.9,2.1,0.5   l8.7-5.5v6.3l-11.2,5.6c-0.4,0.2-0.6,0.5-0.8,0.9l-2.8-4.5c-0.4-0.7-1.4-0.9-2.1-0.5c-0.7,0.4-0.9,1.4-0.5,2.1l11.1,17.9   c-1.6,1-2.6,2.7-2.6,4.7c0,3,2.5,5.5,5.5,5.5c1.1,0,2.1-0.3,2.9-0.8l5.4,8.7c-2.1,1.6-4.3,3-6.6,4.2c0-0.2,0.1-0.5,0.1-0.7   c0-3-2.5-5.5-5.5-5.5s-5.5,2.5-5.5,5.5c0,1.7,0.8,3.3,2,4.3c-4,1.1-8.2,1.7-12.5,1.7c-5.5,0-10.8-1-15.6-2.7c1.4-1,2.4-2.7,2.4-4.5   c0-3-2.5-5.5-5.5-5.5s-5.5,2.5-5.5,5.5c0,0.1,0,0.3,0,0.4c-1.3-0.8-2.6-1.7-3.8-2.6l22.3-35.9c0.4-0.7,0.2-1.6-0.5-2.1   c-0.7-0.4-1.6-0.2-2.1,0.5l-22,35.3C9.8,76.6,3.5,64,3.5,50C3.5,24.4,24.4,3.5,50,3.5S96.5,24.4,96.5,50   C96.5,64,90.2,76.6,80.4,85.2z M69.8,71.2c1.4,0,2.5,1.1,2.5,2.5s-1.1,2.5-2.5,2.5s-2.5-1.1-2.5-2.5S68.4,71.2,69.8,71.2z"/><path d="M60.1,14.7c-0.6-0.6-1.5-0.6-2.1,0l-4.6,4.6c-0.6,0.6-0.6,1.5,0,2.1s1.5,0.6,2.1,0l2-2v1.7l-1.9,1.5   c-13.3,0-21.4,9.5-23.2,11.8c-0.3-0.1-0.5-0.2-0.8-0.2l0,0l-8.2-6.4v-3.6l3.4,3.4c0.3,0.3,0.7,0.4,1.1,0.4s0.8-0.1,1.1-0.4   c0.6-0.6,0.6-1.5,0-2.1l-6-6c-0.6-0.6-1.5-0.6-2.1,0l-6,6c-0.6,0.6-0.6,1.5,0,2.1s1.5,0.6,2.1,0l3.4-3.4v3.6L12,34.3   c-0.7,0.5-0.8,1.5-0.3,2.1c0.5,0.7,1.5,0.8,2.1,0.3l6.6-5.1v5.1l-10.3,6.6c-0.7,0.4-0.9,1.4-0.5,2.1c0.4,0.7,1.4,0.9,2.1,0.5   l8.7-5.5v6.3L9.3,52.2c-0.7,0.4-1,1.3-0.7,2c0.4,0.7,1.3,1,2,0.7l9.8-4.9v11c0,0.8,0.7,1.5,1.5,1.5s1.5-0.7,1.5-1.5V49.9l9.8,4.9   c0.2,0.1,0.4,0.2,0.7,0.2c0.5,0,1.1-0.3,1.3-0.8c0.4-0.7,0.1-1.6-0.7-2l-11.2-5.6v-6.3l8.7,5.5c0.2,0.2,0.5,0.2,0.8,0.2   c0.5,0,1-0.2,1.3-0.7c0.4-0.7,0.2-1.6-0.5-2.1l-10.3-6.6v-5.1l6.6,5.1c0.2,0.2,0.4,0.2,0.7,0.3c0.1,0,0.1,0,0.2,0.1   c4.4,1.1,8.8,3.3,13.2,6.5c0.3,0.2,0.6,0.3,0.9,0.3c0.5,0,0.9-0.2,1.2-0.6c0.5-0.7,0.4-1.6-0.3-2.1c-3.4-2.5-6.9-4.5-10.4-5.8   c2.1-2.4,7.6-7.9,15.7-9.4c-0.6,0.5-0.8,1.4-0.3,2.1c0.3,0.4,0.7,0.6,1.2,0.6c0.3,0,0.6-0.1,0.9-0.3l4.4-3.4v3l-7.7,4.9   c-0.7,0.4-0.9,1.4-0.5,2.1c0.3,0.4,0.8,0.7,1.3,0.7c0.3,0,0.6-0.1,0.8-0.2l6.1-3.9v3.9L49,39.5c-0.7,0.4-1,1.3-0.7,2   c0.3,0.5,0.8,0.8,1.3,0.8c0.2,0,0.5-0.1,0.7-0.2l7-3.5v7.8c0,0.8,0.7,1.5,1.5,1.5s1.5-0.7,1.5-1.5V19.3l2,2   c0.3,0.3,0.7,0.4,1.1,0.4s0.8-0.1,1.1-0.4c0.6-0.6,0.6-1.5,0-2.1L60.1,14.7z"/><circle cx="43.2" cy="67.5" r="1.5"/><circle cx="54.2" cy="56.6" r="1.5"/><circle cx="46.6" cy="59.9" r="1.5"/><circle cx="41.9" cy="80.6" r="1.5"/><circle cx="56.6" cy="68.6" r="1.5"/><circle cx="50.2" cy="92.6" r="1.5"/><path d="M49.8,80.6c0,3,2.5,5.5,5.5,5.5s5.5-2.5,5.5-5.5s-2.5-5.5-5.5-5.5S49.8,77.6,49.8,80.6z M57.8,80.6c0,1.4-1.1,2.5-2.5,2.5   s-2.5-1.1-2.5-2.5s1.1-2.5,2.5-2.5S57.8,79.2,57.8,80.6z"/></g><text x="0" y="115" fill="#000000" font-size="5px" font-weight="bold" font-family="'Helvetica Neue', Helvetica, Arial-Unicode, Arial, Sans-serif">Created by Juraj Sedlák</text><text x="0" y="120" fill="#000000" font-size="5px" font-weight="bold" font-family="'Helvetica Neue', Helvetica, Arial-Unicode, Arial, Sans-serif">from the Noun Project</text></svg>