<svg xmlns="http://www.w3.org/2000/svg" xmlns:xlink="http://www.w3.org/1999/xlink" version="1.1" x="0px" y="0px" viewBox="0 0 100 125" enable-background="new 0 0 100 100" xml:space="preserve"><g><path fill="#000000" d="M77.484,51.484H22.108c-0.621,0-1.125-0.504-1.125-1.125s0.504-1.125,1.125-1.125h55.376   c0.621,0,1.125,0.504,1.125,1.125S78.105,51.484,77.484,51.484z"/></g><g><path fill="#000000" d="M78.609,50.36c0-15.886-12.923-28.81-28.807-28.813c-0.002,0-0.003-0.001-0.005-0.001   s-0.003,0.001-0.005,0.001C33.907,21.55,20.984,34.474,20.984,50.361c0,15.886,12.925,28.812,28.813,28.812   C65.686,79.173,78.609,66.247,78.609,50.36z M69.057,68.624c-1.403-1.264-2.903-2.361-4.474-3.3   c3.936-9.66,3.893-20.57-0.119-30.205c1.546-0.914,3.021-1.989,4.409-3.217c4.629,4.783,7.486,11.291,7.486,18.458   C76.359,57.431,73.577,63.859,69.057,68.624z M37.903,66.311c3.389-1.694,7.064-2.623,10.769-2.779v13.362   c-1.247-0.053-2.469-0.194-3.666-0.413C42.005,73.428,39.637,69.983,37.903,66.311z M41.035,75.43   c-3.304-1.158-6.311-2.949-8.875-5.232c1.19-1.058,2.455-1.988,3.774-2.796C37.281,70.229,38.979,72.928,41.035,75.43z    M45.008,24.237c1.196-0.219,2.418-0.36,3.664-0.413v13.013c-3.654-0.154-7.28-1.06-10.63-2.71   C39.764,30.56,42.084,27.212,45.008,24.237z M36.067,33.05c-1.294-0.781-2.533-1.684-3.705-2.706   c2.521-2.199,5.457-3.93,8.677-5.058C39.046,27.711,37.394,30.32,36.067,33.05z M61.551,34.129   c-3.35,1.649-6.975,2.555-10.629,2.708V23.824c1.245,0.052,2.467,0.193,3.662,0.412C57.509,27.212,59.829,30.561,61.551,34.129z    M58.557,25.287c3.219,1.128,6.155,2.859,8.676,5.058c-1.172,1.021-2.411,1.925-3.705,2.706   C62.201,30.321,60.549,27.711,58.557,25.287z M50.922,39.087c3.969-0.154,7.909-1.124,11.552-2.905   c3.672,8.963,3.711,19.074,0.118,28.062c-3.676-1.818-7.658-2.808-11.67-2.964V39.087z M48.672,39.087V61.28   c-4.013,0.155-7.996,1.146-11.671,2.965c-3.593-8.988-3.554-19.1,0.119-28.063C40.762,37.963,44.703,38.934,48.672,39.087z    M50.922,63.531c3.705,0.155,7.381,1.084,10.769,2.777c-1.734,3.674-4.104,7.119-7.104,10.173   c-1.195,0.219-2.418,0.359-3.664,0.412V63.531z M63.66,67.4c1.319,0.808,2.584,1.738,3.775,2.797   c-2.564,2.283-5.572,4.075-8.877,5.233C60.615,72.927,62.312,70.228,63.66,67.4z M30.722,31.901   c1.387,1.228,2.863,2.303,4.409,3.217c-4.013,9.636-4.057,20.547-0.121,30.207c-1.569,0.938-3.069,2.036-4.472,3.299   c-4.521-4.765-7.304-11.193-7.304-18.264C23.234,43.193,26.092,36.685,30.722,31.901z"/><path fill="#000000" d="M18.703,30.851c0.359,0,0.714-0.172,0.932-0.492c1.394-2.052,3.006-3.969,4.789-5.698   c0.446-0.433,0.457-1.146,0.025-1.591c-0.434-0.447-1.147-0.458-1.591-0.025c-1.894,1.836-3.605,3.872-5.085,6.049   c-0.348,0.513-0.216,1.212,0.298,1.562C18.265,30.788,18.485,30.851,18.703,30.851z"/><path fill="#000000" d="M16.476,33.412c-0.558-0.272-1.232-0.038-1.504,0.521c-1.151,2.372-2.061,4.87-2.705,7.426   c-0.152,0.602,0.214,1.215,0.817,1.366c0.091,0.022,0.183,0.033,0.275,0.033c0.503,0,0.961-0.34,1.091-0.851   c0.606-2.406,1.462-4.758,2.547-6.991C17.268,34.357,17.035,33.684,16.476,33.412z"/><path fill="#000000" d="M14.341,59.298c-0.143-0.604-0.748-0.974-1.354-0.833c-0.605,0.143-0.979,0.75-0.834,1.354   c0.585,2.462,1.419,4.875,2.478,7.172c0.189,0.41,0.596,0.654,1.021,0.654c0.159,0,0.318-0.035,0.47-0.103   c0.565-0.261,0.811-0.929,0.551-1.493C15.677,63.886,14.893,61.615,14.341,59.298z"/><path fill="#000000" d="M22.66,77.934c0.279,0,0.56-0.104,0.778-0.313c0.449-0.429,0.465-1.144,0.035-1.59   c-1.65-1.724-3.136-3.615-4.416-5.619c-0.334-0.527-1.033-0.679-1.554-0.345c-0.524,0.334-0.677,1.031-0.343,1.554   c1.359,2.129,2.936,4.136,4.687,5.965C22.068,77.818,22.364,77.934,22.66,77.934z"/><path fill="#000000" d="M29.421,74.042c-0.621,0-1.125,0.504-1.125,1.125v5.076c-0.389-0.285-0.777-0.573-1.15-0.87   c-0.486-0.383-1.193-0.307-1.581,0.179c-0.387,0.486-0.307,1.194,0.179,1.582c0.401,0.319,0.818,0.628,1.236,0.935h-5.587   c-0.621,0-1.125,0.505-1.125,1.125c0,0.621,0.504,1.125,1.125,1.125h8.028c0.621,0,1.125-0.504,1.125-1.125v-0.588   c0.009-0.048-0.002-0.096,0-0.145v-7.294C30.546,74.546,30.042,74.042,29.421,74.042z"/><path fill="#000000" d="M12.515,55.622c0.617-0.06,1.07-0.61,1.01-1.229c-0.115-1.174-0.174-2.375-0.174-3.572   c0-1.254,0.062-2.505,0.188-3.721c0.063-0.618-0.386-1.17-1.005-1.233c-0.612-0.061-1.17,0.385-1.233,1.004   c-0.133,1.291-0.2,2.62-0.2,3.95c0,1.271,0.063,2.547,0.184,3.794c0.057,0.581,0.547,1.015,1.119,1.015   C12.44,55.629,12.478,55.628,12.515,55.622z"/><path fill="#000000" d="M27.803,21.485c0.228,0,0.458-0.069,0.657-0.214c1.015-0.732,2.067-1.414,3.128-2.026   c0.537-0.31,0.721-0.998,0.411-1.537s-1.001-0.724-1.536-0.411c-1.127,0.649-2.244,1.373-3.32,2.151   c-0.504,0.363-0.617,1.066-0.253,1.57C27.11,21.323,27.453,21.485,27.803,21.485z"/><path fill="#000000" d="M86.613,58.43c-0.594-0.142-1.211,0.231-1.354,0.836c-0.547,2.31-1.326,4.573-2.314,6.729   c-0.26,0.563-0.012,1.231,0.553,1.491c0.152,0.072,0.311,0.103,0.469,0.103c0.426,0,0.834-0.241,1.023-0.657   c1.051-2.291,1.879-4.695,2.459-7.147C87.593,59.18,87.218,58.573,86.613,58.43z"/><path fill="#000000" d="M82.137,69.993c-0.525-0.331-1.222-0.179-1.554,0.346c-1.272,2.002-2.746,3.888-4.386,5.609   c-0.43,0.448-0.411,1.161,0.037,1.59c0.219,0.209,0.498,0.312,0.777,0.312c0.297,0,0.592-0.119,0.815-0.349   c1.739-1.827,3.305-3.831,4.655-5.955C82.816,71.021,82.66,70.325,82.137,69.993z"/><path fill="#000000" d="M75.568,23.46c-0.438,0.44-0.438,1.152,0,1.591c1.728,1.728,3.285,3.635,4.634,5.669   c0.214,0.326,0.573,0.504,0.938,0.504c0.213,0,0.428-0.062,0.62-0.187c0.519-0.344,0.66-1.041,0.316-1.559   c-1.431-2.161-3.084-4.184-4.918-6.018C76.719,23.021,76.008,23.02,75.568,23.46z"/><path fill="#000000" d="M86.281,42.948c0.09,0,0.181-0.01,0.271-0.034c0.601-0.148,0.97-0.757,0.823-1.361   c-0.62-2.514-1.499-4.978-2.609-7.321c-0.268-0.561-0.933-0.801-1.5-0.533c-0.561,0.267-0.801,0.937-0.533,1.499   c1.049,2.206,1.875,4.526,2.457,6.894C85.316,42.604,85.775,42.948,86.281,42.948z"/><path fill="#000000" d="M88.298,46.938c-0.062-0.619-0.627-1.079-1.231-1.007c-0.617,0.06-1.068,0.612-1.006,1.23   c0.119,1.203,0.182,2.433,0.182,3.659c0,1.188-0.057,2.387-0.172,3.562c-0.059,0.619,0.393,1.168,1.012,1.229   c0.036,0.005,0.072,0.006,0.109,0.006c0.572,0,1.062-0.434,1.115-1.016c0.123-1.246,0.185-2.518,0.185-3.779   C88.491,49.521,88.427,48.214,88.298,46.938z"/><path fill="#000000" d="M72.552,79.291c-0.927,0.742-1.899,1.445-2.888,2.089c-0.52,0.34-0.668,1.037-0.329,1.558   c0.216,0.33,0.577,0.512,0.944,0.512c0.209,0,0.424-0.059,0.613-0.182c1.049-0.686,2.082-1.431,3.065-2.219   c0.485-0.39,0.563-1.098,0.176-1.582C73.744,78.982,73.037,78.906,72.552,79.291z"/><path fill="#000000" d="M69.232,26.678c0.621,0,1.125-0.504,1.125-1.125v-4.822c0.45,0.308,0.895,0.622,1.326,0.947   c0.203,0.153,0.44,0.228,0.676,0.228c0.342,0,0.679-0.154,0.9-0.449c0.375-0.496,0.275-1.201-0.222-1.575   c-0.563-0.425-1.146-0.834-1.74-1.231h5.962c0.621,0,1.125-0.504,1.125-1.125S77.881,16.4,77.26,16.4h-8.027   c-0.621,0-1.125,0.504-1.125,1.125v0v0v8.027C68.107,26.174,68.611,26.678,69.232,26.678z"/></g><text x="0" y="115" fill="#000000" font-size="5px" font-weight="bold" font-family="'Helvetica Neue', Helvetica, Arial-Unicode, Arial, Sans-serif">Created by Ivan Colic</text><text x="0" y="120" fill="#000000" font-size="5px" font-weight="bold" font-family="'Helvetica Neue', Helvetica, Arial-Unicode, Arial, Sans-serif">from the Noun Project</text></svg>