<svg xmlns="http://www.w3.org/2000/svg" xmlns:xlink="http://www.w3.org/1999/xlink" version="1.1" x="0px" y="0px" viewBox="0 0 32 40" enable-background="new 0 0 32 32" xml:space="preserve"><g display="none"><g display="inline"><g><path d="M16.008,0.007v17.451l-8.345-6.28L7.018,7.234l4.847-7.227C11.866,0.007,14.482-0.009,16.008,0.007z"/><polygon fill="#000000" points="16.008,20.423 16.008,26.68 9.311,21.315 8.239,14.694    "/><polygon fill="#000000" points="11.001,32 9.861,24.812 16.008,29.72 16.008,32    "/></g><g><path d="M15.992,0.007v17.451l8.345-6.28l0.644-3.944l-4.847-7.227C20.134,0.007,17.518-0.009,15.992,0.007z"/><polygon fill="#000000" points="15.992,20.423 15.992,26.68 22.689,21.315 23.761,14.694    "/><polygon fill="#000000" points="20.999,32 22.139,24.812 15.992,29.72 15.992,32    "/></g></g></g><g display="none"><rect x="-489.667" y="-107" display="inline" fill="#000000" width="542" height="232"/></g><g display="none"><polygon display="inline" fill="#000000" stroke="#1A1718" stroke-miterlimit="10" points="22.223,21.149 23.219,14.735 16,20.279    8.781,14.735 9.777,21.149 15.937,26.75  "/><polygon display="inline" fill="#000000" stroke="#1A1718" stroke-miterlimit="10" points="10.289,24.536 11.35,31.5 15.993,31.5    16.007,31.5 20.65,31.5 21.711,24.536 16,29.285  "/><path display="inline" fill="#000000" stroke="#1A1718" stroke-miterlimit="10" d="M23.756,11.329l0.599-3.821l-4.509-7.001   c0,0-2.426-0.016-3.846,0c-1.42-0.016-3.846,0-3.846,0L7.645,7.508l0.599,3.821l7.818,6.296L23.756,11.329z"/></g><g><path d="M23.452,14.694L16,20.417l-7.452-5.723l1.029,6.621l6.359,5.782l6.488-5.782L23.452,14.694z M15.939,26.424l-5.895-5.36   l-0.81-5.213l6.462,4.962L16,21.047l0.305-0.234l6.462-4.962l-0.81,5.21L15.939,26.424z"/><path d="M11.2,32h4.793h0.015H20.8l1.095-7.188L16,29.713l-5.895-4.902L11.2,32z M16,30.364l0.32-0.266l4.883-4.06L20.371,31.5   h-4.378h-4.363l-0.832-5.462l4.883,4.06L16,30.364z"/><path d="M24.625,7.234L19.97,0.007c0,0-1.116-0.007-2.293-0.007C17.09,0,16.488,0.002,16,0.007C15.512,0.002,14.91,0,14.323,0   c-1.178,0-2.293,0.007-2.293,0.007L7.375,7.234l0.619,3.944l8.07,6.499l7.941-6.499L24.625,7.234z M16.062,17.033L8.458,10.91   L7.899,7.345l4.405-6.839c0.401-0.002,1.195-0.006,2.02-0.006c0.585,0,1.185,0.002,1.682,0.007C16.492,0.502,17.092,0.5,17.677,0.5   c0.825,0,1.619,0.004,2.02,0.006l4.405,6.839l-0.56,3.567L16.062,17.033z"/></g><g display="none"><g display="inline"><g><circle fill="#000000" cx="16" cy="16" r="16"/></g></g><polygon display="inline" fill="#000000" stroke="#1A1718" stroke-miterlimit="10" points="22.223,21.149 23.219,14.735 16,20.279    8.781,14.735 9.777,21.149 15.937,26.75  "/><polygon display="inline" fill="#000000" stroke="#1A1718" stroke-miterlimit="10" points="10.289,24.536 11.35,31.5 15.993,31.5    16.007,31.5 20.65,31.5 21.711,24.536 16,29.285  "/><path display="inline" fill="#000000" stroke="#1A1718" stroke-miterlimit="10" d="M23.756,11.329l0.599-3.821l-4.509-7.001   c0,0-2.426-0.016-3.846,0c-1.42-0.016-3.846,0-3.846,0L7.645,7.508l0.599,3.821l7.818,6.296L23.756,11.329z"/></g><g display="none"><g display="inline"><g><circle fill="#000000" cx="16" cy="16" r="16"/></g></g><polygon display="inline" fill="#000000" stroke="#000000" stroke-miterlimit="10" points="22.223,21.149 23.219,14.735 16,20.279    8.781,14.735 9.777,21.149 15.937,26.75  "/><polygon display="inline" fill="#000000" stroke="#000000" stroke-miterlimit="10" points="10.289,24.536 11.35,31.5 15.993,31.5    16.007,31.5 20.65,31.5 21.711,24.536 16,29.285  "/><path display="inline" fill="#000000" stroke="#000000" stroke-miterlimit="10" d="M23.756,11.329l0.599-3.821l-4.509-7.001   c0,0-2.426-0.016-3.846,0c-1.42-0.016-3.846,0-3.846,0L7.645,7.508l0.599,3.821l7.818,6.296L23.756,11.329z"/></g><g display="none"><g display="inline"><g><g><path fill="#000000" d="M16,30.5C8.005,30.5,1.5,23.995,1.5,16S8.005,1.5,16,1.5S30.5,8.005,30.5,16S23.995,30.5,16,30.5z"/></g><g><g><path fill="#000000" d="M16,3c7.168,0,13,5.832,13,13s-5.832,13-13,13S3,23.168,3,16S8.832,3,16,3 M16,0C7.163,0,0,7.163,0,16       s7.163,16,16,16s16-7.163,16-16S24.837,0,16,0L16,0z"/></g></g></g></g><g display="inline"><polygon fill="#000000" points="22.223,21.149 23.219,14.735 16,20.279 8.781,14.735 9.777,21.149 15.937,26.75   "/><path d="M15.935,27.423L9.311,21.4l-1.216-7.823L16,19.648l7.905-6.071l-1.216,7.826L15.935,27.423z M10.244,20.898l5.696,5.179    l5.815-5.182l0.778-5.004L16,20.91l-6.534-5.019L10.244,20.898z"/></g><g display="inline"><polygon fill="#000000" points="10.289,24.536 11.35,31.5 15.993,31.5 16.007,31.5 20.65,31.5 21.711,24.536 16,29.285   "/><path d="M21.08,32H10.92l-1.323-8.69L16,28.635l6.403-5.325L21.08,32z M11.779,31h8.441l0.798-5.237L16,29.936l-5.019-4.173    L11.779,31z"/></g><g display="inline"><path fill="#000000" d="M23.756,11.329l0.599-3.821l-4.509-7.001c0,0-2.426-0.016-3.846,0c-1.42-0.016-3.846,0-3.846,0    L7.645,7.508l0.599,3.821l7.818,6.296L23.756,11.329z"/><path d="M16.065,18.269L7.78,11.598l-0.659-4.2l4.76-7.389l0.271-0.002c0,0.001,2.429-0.014,3.854,0c1.409-0.015,3.843,0,3.843,0    l0.271,0.002l4.76,7.389l-0.658,4.197L16.065,18.269z M8.708,11.061l7.352,5.921l7.231-5.918l0.541-3.445l-4.26-6.613    c-0.672-0.003-2.438-0.01-3.566,0.002c-1.139-0.012-2.907-0.005-3.578-0.002l-4.26,6.613L8.708,11.061z"/></g></g><g display="none"><polygon display="inline" points="23.452,14.737 16,20.46 8.548,14.737 9.577,21.358 15.935,27.14 22.423,21.358  "/><polygon display="inline" points="11.2,32.043 15.992,32.043 16.008,32.043 20.8,32.043 21.895,24.854 16,29.756 10.105,24.854     "/><path display="inline" d="M24.625,7.277L19.97,0.05c0,0-2.504-0.017-3.97,0c-1.466-0.017-3.97,0-3.97,0L7.375,7.277l0.619,3.944   l8.07,6.499l7.941-6.499L24.625,7.277z"/></g><text x="0" y="47" fill="#000000" font-size="5px" font-weight="bold" font-family="'Helvetica Neue', Helvetica, Arial-Unicode, Arial, Sans-serif">Created by AlfredoCreates.com</text><text x="0" y="52" fill="#000000" font-size="5px" font-weight="bold" font-family="'Helvetica Neue', Helvetica, Arial-Unicode, Arial, Sans-serif">from the Noun Project</text></svg>