<svg xmlns="http://www.w3.org/2000/svg" xmlns:xlink="http://www.w3.org/1999/xlink" version="1.1" x="0px" y="0px" viewBox="0 0 32 40" enable-background="new 0 0 32 32" xml:space="preserve"><g display="none"><g display="inline"><polygon fill="#000000" points="13.463,30.372 16,21.213 18.537,30.372   "/></g><g display="inline"><g><path fill="#000000" d="M16,7.426L22.254,30H9.746L16,7.426 M16-0.066L7.117,32h17.766L16-0.066L16-0.066z"/></g></g></g><g display="none"><rect x="-125.667" y="-31" display="inline" fill="#000000" width="542" height="232"/></g><path d="M16,18.655l-2.986,10.847h5.973L16,18.655z M16,22.423l1.674,6.079h-3.348L16,22.423z"/><path d="M16-0.005l-8.813,32.01h17.627L16-0.005z M16,3.762l7.501,27.243H8.499L16,3.762z"/><g display="none"><g display="inline"><g><circle fill="#000000" cx="16" cy="16" r="16"/></g></g><g display="inline"><polygon fill="#000000" points="7.842,31.505 16,1.878 24.158,31.505   "/><path fill="#000000" d="M24.813,32.005H7.187L16-0.005L24.813,32.005z M8.499,31.005h15.002L16,3.762L8.499,31.005z"/></g><g display="inline"><polygon fill="#000000" points="13.67,29.001 16,20.539 18.33,29.001   "/><path fill="#000000" d="M18.986,29.502h-5.973L16,18.655L18.986,29.502z M14.326,28.502h3.348L16,22.423L14.326,28.502z"/></g></g><g display="none"><path display="inline" d="M16,0.043l-8.811,32h17.622L16,0.043z M16,20.198l2.517,9.14h-5.033L16,20.198z"/></g><text x="0" y="47" fill="#000000" font-size="5px" font-weight="bold" font-family="'Helvetica Neue', Helvetica, Arial-Unicode, Arial, Sans-serif">Created by AlfredoCreates.com</text><text x="0" y="52" fill="#000000" font-size="5px" font-weight="bold" font-family="'Helvetica Neue', Helvetica, Arial-Unicode, Arial, Sans-serif">from the Noun Project</text></svg>