<?xml version="1.0" ?><!DOCTYPE svg  PUBLIC '-//W3C//DTD SVG 1.1//EN'  'http://www.w3.org/Graphics/SVG/1.1/DTD/svg11.dtd'><svg enable-background="new 0 0 512 512" height="512px" id="Layer_1" version="1.1" viewBox="0 0 512 512" width="512px" xml:space="preserve" xmlns="http://www.w3.org/2000/svg" xmlns:xlink="http://www.w3.org/1999/xlink"><g><path clip-rule="evenodd" d="M486.591,0H25.701C11.486,0,0,11.491,0,25.706v460.891   C0,500.519,11.486,512,25.701,512h460.89c13.912,0,25.409-11.48,25.409-25.403V25.706C512,11.491,500.503,0,486.591,0L486.591,0z    M253.427,251.614h200.506v26.014H253.427v26.009h200.506v26.009H253.427h-39.009H58.056v-26.009h156.362v-26.009H58.056v-26.014   h156.362V134.276h39.009v42.337c10.882-16.934,20.557-29.03,29.034-35.684c8.77-6.956,18.141-10.285,28.419-10.285   c6.956,0,14.215,1.513,21.473,4.843c7.26,3.021,15.121,7.858,23.297,14.21l-21.172,34.781c-6.353-5.443-12.402-9.68-18.151-12.096   c-6.05-2.422-12.09-3.627-18.442-3.627c-10.591,0-19.66,4.535-27.523,13.302c-8.164,8.772-13.61,21.171-16.933,37.203V251.614z    M58.056,355.654h395.877v26.009H58.056V355.654z" fill="#040404" fill-rule="evenodd"/></g></svg>