<?xml version="1.0" encoding="UTF-8" standalone="no"?>
<svg
   xmlns:dc="http://purl.org/dc/elements/1.1/"
   xmlns:cc="http://creativecommons.org/ns#"
   xmlns:rdf="http://www.w3.org/1999/02/22-rdf-syntax-ns#"
   xmlns:svg="http://www.w3.org/2000/svg"
   xmlns="http://www.w3.org/2000/svg"
   xmlns:sodipodi="http://sodipodi.sourceforge.net/DTD/sodipodi-0.dtd"
   xmlns:inkscape="http://www.inkscape.org/namespaces/inkscape"
   enable-background="new 0 0 128 128"
   height="512"
   id="Layer_1"
   version="1.1"
   viewBox="0 0 512 512"
   width="512"
   xml:space="preserve"
   sodipodi:docname="ruby-logo.svg"
   inkscape:version="0.92.0 r"><metadata
     id="metadata17"><rdf:RDF><cc:Work
         rdf:about=""><dc:format>image/svg+xml</dc:format><dc:type
           rdf:resource="http://purl.org/dc/dcmitype/StillImage" /><dc:title></dc:title></cc:Work></rdf:RDF></metadata><defs
     id="defs15" /><sodipodi:namedview
     pagecolor="#ffffff"
     bordercolor="#666666"
     borderopacity="1"
     objecttolerance="10"
     gridtolerance="10"
     guidetolerance="10"
     inkscape:pageopacity="0"
     inkscape:pageshadow="2"
     inkscape:window-width="2560"
     inkscape:window-height="1311"
     id="namedview13"
     showgrid="false"
     inkscape:zoom="0.921875"
     inkscape:cx="247.16691"
     inkscape:cy="227.32698"
     inkscape:window-x="0"
     inkscape:window-y="55"
     inkscape:window-maximized="1"
     inkscape:current-layer="Layer_1" /><g
     id="g829"
     transform="matrix(4.809318,0,0,4.809318,-51.820399,-1896.6099)"><path
       inkscape:connector-curvature="0"
       id="path2"
       d="m 112.005,434.192 h -96 c -0.778,0 -1.485,-0.451 -1.813,-1.157 -0.328,-0.706 -0.217,-1.538 0.284,-2.132 L 37.5,403.595 c 0.38,-0.451 0.939,-0.711 1.529,-0.711 h 49.957 c 0.59,0 1.149,0.26 1.529,0.711 l 23.019,27.308 c 0.501,0.595 0.612,1.427 0.284,2.132 -0.328,0.705 -1.035,1.157 -1.813,1.157 z m -91.697,-4 h 87.396 L 88.057,406.884 H 39.959 Z" /><polygon
       transform="translate(0,384)"
       id="polygon4"
       points="14.475,49.48 17.535,46.904 64.005,102.088 110.475,46.904 113.535,49.48 64.005,108.299 " /><path
       inkscape:connector-curvature="0"
       id="path6"
       d="m 64.005,491.193 v 0 c -0.849,0 -1.604,-0.535 -1.886,-1.335 L 42.023,432.857 c -0.221,-0.625 -0.117,-1.317 0.275,-1.851 l 20.096,-27.308 c 0.752,-1.024 2.467,-1.024 3.221,0 l 20.1,27.308 c 0.393,0.533 0.496,1.226 0.275,1.851 l -20.1,57.001 c -0.281,0.8 -1.036,1.335 -1.885,1.335 z m -17.858,-58.668 17.857,50.654 17.861,-50.654 -17.86,-24.267 z" /><rect
       style="stroke-width:0.99999207"
       id="rect8"
       y="30.798977"
       x="405.43576"
       width="27.73978"
       transform="rotate(79.868882)"
       height="3.9999683" /><rect
       style="stroke-width:1.00000966"
       id="rect10"
       y="382.90067"
       x="156.85788"
       width="4.0000386"
       transform="rotate(10.136758)"
       height="27.741268" /></g></svg>