<?xml version="1.0" encoding="UTF-8" standalone="no"?>
<svg
   xmlns:dc="http://purl.org/dc/elements/1.1/"
   xmlns:cc="http://creativecommons.org/ns#"
   xmlns:rdf="http://www.w3.org/1999/02/22-rdf-syntax-ns#"
   xmlns:svg="http://www.w3.org/2000/svg"
   xmlns="http://www.w3.org/2000/svg"
   xml:space="preserve"
   enable-background="new 0 0 1200 1200"
   viewBox="0 0 1100 317.112"
   height="317.112"
   width="1100"
   y="0px"
   x="0px"
   id="Layer_1"
   version="1.1"><metadata
     id="metadata3463"><rdf:RDF><cc:Work
         rdf:about=""><dc:format>image/svg+xml</dc:format><dc:type
           rdf:resource="http://purl.org/dc/dcmitype/StillImage" /><dc:title></dc:title></cc:Work></rdf:RDF></metadata><defs
     id="defs3461" /><g
     transform="translate(-50,-441.443)"
     id="g3435"><g
       id="g3437"><path
         style="fill:#ff9800"
         id="path3439"
         d="m 340.429,499.73 c -1.018,-1.056 -3.355,-1.902 -3.355,-1.902 0.734,-1.103 0.981,-3.553 0.981,-3.553 7.09,-0.413 9.238,-1.267 9.889,-1.786 -14.169,-1.775 -30.048,-2.675 -47.199,-2.675 -16.057,0 -27.753,0.805 -29.861,0.959 2.226,1.462 9.931,2.274 9.931,2.274 l 0.858,4.29 c -1.115,0.062 -1.915,0.405 -2.434,0.731 1.802,-0.02 6.709,-0.069 13.065,-0.069 16.405,10e-4 37.904,0.307 48.125,1.731 z m -5.617,-7.623 1.729,0 0,5.065 -1.729,0 0,-5.065 z m -3.382,-0.544 1.727,0 0,5.133 -1.727,0 0,-5.133 z m -3.488,-0.274 1.727,0 0,5.101 -1.727,0 0,-5.101 z m -3.863,0.033 1.73,0 0,4.963 -1.73,0 0,-4.963 z m -3.249,0 1.732,0 0,4.963 -1.732,0 0,-4.963 z m -3.522,0 1.731,0 0,4.963 -1.731,0 0,-4.963 z m -3.779,0 1.729,0 0,4.963 -1.729,0 0,-4.963 z m -4.033,0 1.73,0 0,4.963 -1.73,0 0,-4.963 z m -4.032,0 1.727,0 0,4.963 -1.727,0 0,-4.963 z m -4.037,0 1.731,0 0,4.963 -1.731,0 0,-4.963 z m -4.031,0 1.73,0 0,4.963 -1.73,0 0,-4.963 z m -4.031,0 1.729,0 0,4.963 -1.729,0 0,-4.963 z m -9.007,5.85 -1.731,0 0,-5.065 1.731,0 0,5.065 z m 3.384,-0.475 -1.727,0 0,-5.133 1.727,0 0,5.133 z m 3.489,-0.308 -1.729,0 0,-5.101 1.729,0 0,5.101 z" /><path
         style="fill:#c5cae9"
         id="path3441"
         d="m 347.698,491.234 c -1.545,-1.304 -5.964,-2.476 -5.964,-2.476 0.122,-4.291 -2.572,-4.658 -2.572,-4.658 l -19.859,-7.722 0,-1.838 2.94,-3.924 -3.433,0 0,-2.819 -6.615,0 0,-3.677 -1.961,0 -1.47,-22.677 -0.859,22.677 -0.981,0 0,3.799 -7.478,0 0,3.129 -2.635,0 3.371,3.367 0,1.841 -19.366,6.371 c -3.187,0.858 -3.554,4.902 -3.554,4.902 -2.66,0.343 -4.99,1.398 -6.168,2.007 2.816,-0.2 14.255,-0.943 29.661,-0.943 17.041,0.002 32.826,0.893 46.943,2.641 z m -10.56,-5.964 2.038,0 0,2.206 -2.038,0 0,-2.206 z m -3.143,-0.424 2.039,0 0,2.207 -2.039,0 0,-2.207 z m -3.058,-0.512 2.038,0 0,2.209 -2.038,0 0,-2.209 z m -3.227,-0.34 2.039,0 0,2.21 -2.039,0 0,-2.21 z m -3.056,-0.34 2.036,0 0,2.209 -2.036,0 0,-2.209 z m -3.146,-0.339 2.04,0 0,2.208 -2.04,0 0,-2.208 z m -3.228,-0.256 2.041,0 0,2.211 -2.041,0 0,-2.211 z m -3.141,-0.169 2.038,0 0,2.211 -2.038,0 0,-2.211 z m -3.227,0 2.039,0 0,2.211 -2.039,0 0,-2.211 z m -3.228,0 2.04,0 0,2.211 -2.04,0 0,-2.211 z m -3.226,0 2.038,0 0,2.211 -2.038,0 0,-2.211 z m -3.228,0 2.037,0 0,2.211 -2.037,0 0,-2.211 z m -19.962,3.823 -2.036,0 0,-2.207 2.036,0 0,2.207 z m 3.143,-0.428 -2.036,0 0,-2.206 2.036,0 0,2.206 z m 3.061,-0.507 -2.041,0 0,-2.209 2.041,0 0,2.209 z m 3.226,-0.34 -2.038,0 0,-2.208 2.038,0 0,2.208 z m 3.057,-0.337 -2.039,0 0,-2.211 2.039,0 0,2.211 z m 3.058,0 -2.04,0 0,-2.211 2.04,0 0,2.211 z m 1.188,-2.211 2.038,0 0,2.211 -2.038,0 0,-2.211 z" /><path
         style="fill:#c5cae9"
         id="path3443"
         d="m 270.275,489.984 c 0,0 0.315,-0.186 0.819,-0.446 -0.425,0.031 -0.663,0.049 -0.678,0.05 l -0.482,0.039 0.097,1.215 0.482,-0.04 c 0.013,-0.001 0.162,-0.012 0.372,-0.028 -0.373,-0.245 -0.61,-0.508 -0.61,-0.79 z" /><path
         style="fill:#c5cae9"
         id="path3445"
         d="m 347.945,492.49 c 0.024,0.003 0.049,0.006 0.072,0.009 l 0.475,0.06 0.162,-1.21 -0.481,-0.06 c -0.158,-0.019 -0.318,-0.037 -0.475,-0.054 0.327,0.273 0.531,0.554 0.531,0.832 0,-0.001 0.033,0.171 -0.284,0.423 z" /><path
         style="fill:#c5cae9"
         id="path3447"
         d="m 279.239,498.068 c -0.48,0.006 -0.749,0.01 -0.762,0.01 l -0.481,0.008 0.05,1.214 0.479,-0.004 c 0.08,-10e-4 0.23,-0.004 0.36,-0.006 -0.179,-0.195 -0.316,-0.394 -0.395,-0.604 0,0 0.24,-0.299 0.749,-0.618 z" /><path
         style="fill:#c5cae9"
         id="path3449"
         d="m 340.375,500.95 c 0.131,0.018 0.284,0.036 0.41,0.053 l 0.477,0.072 0.181,-1.204 -0.479,-0.071 c -0.165,-0.024 -0.362,-0.047 -0.534,-0.071 0.209,0.219 0.383,0.442 0.445,0.673 -10e-4,0.001 -0.113,0.223 -0.5,0.548 z" /><path
         style="fill:#c5cae9"
         id="path3451"
         d="m 1038.49,730.114 -3.314,0.088 c -7.576,-0.023 -16.214,-10.825 -16.214,-10.825 l -7.586,7.58 -10.827,0 0,-14.076 -42.233,0 c 0,0 -2.008,2.841 -3.791,6.473 l 0,-31.926 -14.625,14.623 0,18.408 -20.24,0 0,-20.02 -9.461,0 0,-24.559 1.35,0 0,-8.712 -6.607,0 0,-1.825 0.888,0 0,-1.788 -11.086,0 0,-0.889 -2.164,0 0,0.763 -2.55,0 0,-3.438 -2.419,0 0,-1.019 -12.104,0 0,1.398 -8.534,0 0,2.55 -5.989,0 0,1.275 -4.971,0 0,3.948 -6.112,0 0,3.567 1.145,0 0,2.68 -1.655,0 0,2.674 1.527,0 c 0,0 -0.445,7.995 0,8.443 0.444,0.442 -31.214,0 -31.214,0 l 1.399,2.164 0,5.986 -2.631,0 0,-14.313 -21.997,0 0,15.586 -8.879,0 0,-8.534 -16.433,0 0,-6.882 -2.548,0 0,-0.761 -3.694,0 0,1.275 -7.644,0 0,6.496 -13.25,0 0,-18.728 1.783,-3.823 -5.477,0 0,-3.691 1.4,-2.935 -12.865,0 0,-6.623 -12.106,0 0,6.498 -6.116,0 0,-3.313 -2.036,0 0,3.313 -2.675,0 0,1.017 -4.715,0 1.144,2.168 0,4.334 -1.02,0.377 1.02,1.659 0,19.11 -2.293,0 0,-32.742 -3.054,0 0,-1.658 -2.167,0 0,-2.291 -27.01,0 0,-25.097 -34.529,0.503 0,22.169 -2.929,0 -3.821,0.132 0,6.305 -10.385,0 -0.825,-0.827 -3.444,0 0,-4.207 -5.859,0 0,1.657 -1.527,0 0,-1.273 -5.094,0 0,2.674 -8.794,0 0,18.346 -3.567,0 0,1.658 -2.548,0 0,5.093 -1.401,0 0,5.61 -1.912,0 0,2.16 0.763,0 0,2.424 -9.297,0 0,-22.551 -2.675,0 0,-2.418 -9.109,0 0,-1.323 -2.268,0 0,-1.04 1.136,0 0,-1.198 -1.136,0 0,-1.067 1.136,0 0,-1.787 -1.136,0 0,-1.167 1.165,0 0,-1.231 -1.165,0 0,-1.036 1.311,0 0,-1.747 -2.677,0 0,-5.479 -8.025,0 -2.677,-4.587 -8.914,0 0,-1.656 -4.588,0 0,-1.912 -3.696,0 0,-11.084 -7.771,-3.95 -16.563,0 -5.225,3.311 0,-28.024 -1.145,-0.894 0,-7.642 -0.892,-0.766 -7.134,0 0,-5.733 -1.529,-1.527 -8.537,0 0,8.026 -6.117,0 0,13.122 -4.965,0 0,1.147 -2.169,0 0,6.498 -8.152,0 0,-1.273 -4.332,0 0,-18.601 -15.416,0 0,-31.342 -6.498,0 0,-1.276 -1.657,-1.655 -7.135,-8.028 0,-3.822 -3.95,0 0,3.822 -8.024,8.283 0,2.548 -6.498,0 0,25.351 -1.018,0.511 0,67.015 -5.989,0 0,-1.529 -4.458,0 0,-69.563 -2.548,-1.274 -32.234,0 0,39.88 -13.505,0 -3.95,-3.444 -4.587,0.514 0,1.779 -4.077,0 0,-28.409 -13.119,0 0,-29.672 c 0,-7.356 6.863,-54.788 6.863,-54.788 9.082,-0.269 12.285,-1.987 13.35,-2.884 -10.654,-1.505 -34.628,-1.733 -48.09,-1.733 -6.795,0 -11.859,0.054 -13.4,0.073 2.519,2.752 14.067,3.932 14.067,3.932 -0.369,0.736 1.963,13.359 1.963,13.359 2.449,12.133 6.616,49.638 6.616,49.638 l 0,28.437 c -0.462,13.322 -5.225,48.281 -5.824,52.629 l -3.069,0 0,10.701 -13.631,0 0,12.608 -7.01,0 0,3.955 -2.421,0 0,-1.657 -1.781,0 0,-48.414 0.892,0 0,-1.02 -4.46,0 0,-6.498 -10.83,0 0,-1.909 -7.385,0 0,1.909 -14.269,0 0,6.755 -2.293,0 0,51.214 -16.18,0 -0.024,26.042 -13.012,0 0,-9.748 -23.828,0 0,20.052 -7.58,-2.726 -7.581,7.58 0,-20.58 -11.912,0 0,22.748 -14.078,0 0,7.582 -60.335,13.765 -24.917,18.197 80.456,0.713 1019.544,0 -111.51,-28.441 z m -727.206,-189.372 0.035,-1.369 1.103,0 0,3.397 -0.794,0 c -0.149,-0.759 -0.264,-1.48 -0.344,-2.028 z m 99.211,51.912 0,6.502 -1.789,0 0,-6.502 1.789,0 z m -1.789,-1.394 0,-6.507 1.789,0 0,6.507 -1.789,0 z m 0.014,63.44 2.42,0 0,1.147 -2.42,0 0,-1.147 z m 0,-1.464 0,-1.146 2.42,0 0,1.146 -2.42,0 z m 0,-2.608 0,-1.145 2.42,0 0,1.145 -2.42,0 z m 0,-7.816 0,-1.151 2.42,0 0,1.151 -2.42,0 z m 0,-2.61 0,-1.146 2.42,0 0,1.146 -2.42,0 z m 0,-2.608 0,-1.144 2.42,0 0,1.144 -2.42,0 z m 0,-2.604 0,-1.146 2.42,0 0,1.146 -2.42,0 z m 0,-2.608 0,-1.143 2.42,0 0,1.143 -2.42,0 z m 0,-10.425 0,-1.149 2.42,0 0,1.149 -2.42,0 z m 0,-5.216 0,-1.148 2.42,0 0,1.148 -2.42,0 z m 0,-2.604 0,-1.15 2.42,0 0,1.15 -2.42,0 z m 0,-2.61 0,-1.147 2.42,0 0,1.147 -2.42,0 z m 0,-7.824 0,-1.142 2.42,0 0,1.142 -2.42,0 z m 0,-2.604 0,-1.142 2.42,0 0,1.142 -2.42,0 z m 1.902,-31.373 -4.209,0 0,-5.355 4.209,0 0,5.355 z m -2.92,32.835 0,1.142 -2.42,0 0,-1.142 2.42,0 z m -2.421,-1.462 0,-1.142 2.42,0 0,1.142 -2.42,0 z m 2.421,4.067 0,1.144 -2.42,0 0,-1.144 2.42,0 z m 0,2.607 0,1.149 -2.42,0 0,-1.149 2.42,0 z m 0,18.246 0,1.147 -2.42,0 0,-1.147 2.42,0 z m 0,2.61 0,1.144 -2.42,0 0,-1.144 2.42,0 z m 0,2.61 0,1.143 -2.42,0 0,-1.143 2.42,0 z m 0,2.604 0,1.146 -2.42,0 0,-1.146 2.42,0 z m 0,7.819 0,1.151 -2.42,0 0,-1.151 2.42,0 z m 0,2.609 0,1.147 -2.42,0 0,-1.147 2.42,0 z m 0,2.606 0,1.145 -2.42,0 0,-1.145 2.42,0 z m 0,2.605 0,1.145 -2.42,0 0,-1.145 2.42,0 z m 0,5.218 0,1.147 -2.42,0 0,-1.147 2.42,0 z m 0,2.604 0,1.146 -2.42,0 0,-1.146 2.42,0 z m 14.328,-83.723 0,1.147 -2.42,0 0,-1.147 2.42,0 z m -2.42,-1.468 0,-1.147 2.42,0 0,1.147 -2.42,0 z m 2.42,4.08 0,1.143 -2.42,0 0,-1.143 2.42,0 z m 0,2.611 0,1.146 -2.42,0 0,-1.146 2.42,0 z m 0,2.613 0,1.144 -2.42,0 0,-1.144 2.42,0 z m 0,2.609 0,1.146 -2.42,0 0,-1.146 2.42,0 z m 0,2.614 0,1.145 -2.42,0 0,-1.145 2.42,0 z m 0,2.61 0,1.146 -2.42,0 0,-1.146 2.42,0 z m 0,2.612 0,1.147 -2.42,0 0,-1.147 2.42,0 z m 0,2.614 0,1.148 -2.42,0 0,-1.148 2.42,0 z m 0,2.609 0,1.147 -2.42,0 0,-1.147 2.42,0 z m 0,2.61 0,1.149 -2.42,0 0,-1.149 2.42,0 z m 0,2.614 0,1.149 -2.42,0 0,-1.149 2.42,0 z m 0,2.612 0,1.145 -2.42,0 0,-1.145 2.42,0 z m 0,2.613 0,1.147 -2.42,0 0,-1.147 2.42,0 z m 0,2.61 0,1.147 -2.42,0 0,-1.147 2.42,0 z m 0,2.612 0,1.145 -2.42,0 0,-1.145 2.42,0 z m 0,2.613 0,1.145 -2.42,0 0,-1.145 2.42,0 z m 0,2.61 0,1.149 -2.42,0 0,-1.149 2.42,0 z m 0,2.613 0,1.145 -2.42,0 0,-1.145 2.42,0 z m 0,2.612 0,1.149 -2.42,0 0,-1.149 2.42,0 z m 0,2.61 0,1.149 -2.42,0 0,-1.149 2.42,0 z m 0,2.613 0,1.147 -2.42,0 0,-1.147 2.42,0 z m 0,2.613 0,1.143 -2.42,0 0,-1.143 2.42,0 z m 0,2.611 0,1.146 -2.42,0 0,-1.146 2.42,0 z m 0,2.611 0,1.144 -2.42,0 0,-1.144 2.42,0 z m 0,2.61 0,1.151 -2.42,0 0,-1.151 2.42,0 z m 0,2.615 0,1.145 -2.42,0 0,-1.145 2.42,0 z m 0,2.608 0,1.148 -2.42,0 0,-1.148 2.42,0 z m 0,2.615 0,1.143 -2.42,0 0,-1.143 2.42,0 z m 0,2.612 0,1.145 -2.42,0 0,-1.145 2.42,0 z m 0,2.608 0,1.149 -2.42,0 0,-1.149 2.42,0 z m 0,2.616 0,1.148 -2.42,0 0,-1.148 2.42,0 z m 0,2.609 0,1.149 -2.42,0 0,-1.149 2.42,0 z m 0,2.613 0,1.147 -2.42,0 0,-1.147 2.42,0 z m 7.91,48.84 0,-1.531 6.019,0 0,1.531 -6.019,0 z m 6.019,1.952 0,1.549 -6.019,0 0,-1.549 6.019,0 z m -6.019,-5.449 0,-1.548 6.019,0 0,1.548 -6.019,0 z m 0,-3.175 0,-1.547 6.019,0 0,1.547 -6.019,0 z m -3.006,-7.904 0,-0.966 0.481,-0.088 24.806,0 0,0.965 -0.481,0.089 -24.806,0 z m 24.805,-2.251 -24.805,0 0,-0.967 0.481,-0.086 24.806,0 0,0.963 -0.482,0.09 z m 0,-2.252 -24.805,0 0,-0.962 0.481,-0.091 24.806,0 0,0.963 -0.482,0.09 z m 0,-2.252 -24.805,0 0,-0.966 0.481,-0.081 24.806,0 0,0.965 -0.482,0.082 z m -27.992,-118.058 0,-5.358 5.23,0 0,5.358 -5.23,0 z m 343.077,130.582 0,1.944 -4.344,0 0,-1.944 4.344,0 z m -4.344,-1.543 0,-1.946 4.344,0 0,1.946 -4.344,0 z m 4.344,5.03 0,1.948 -4.344,0 0,-1.948 4.344,0 z m 0,3.49 0,1.943 -4.344,0 0,-1.943 4.344,0 z m 0,3.488 0,1.943 -4.344,0 0,-1.943 4.344,0 z m 0,3.487 0,1.941 -4.344,0 0,-1.941 4.344,0 z m 0,3.486 0,1.948 -4.344,0 0,-1.948 4.344,0 z m 0,3.49 0,1.943 -4.344,0 0,-1.943 4.344,0 z m 0,3.485 0,1.945 -4.344,0 0,-1.945 4.344,0 z m 0,3.489 0,1.948 -4.344,0 0,-1.948 4.344,0 z m 136.152,-56.214 4.076,0 0,1.787 -4.076,0 0,-1.787 z m 0,4.203 4.076,0 0,1.785 -4.076,0 0,-1.785 z m 0,4.206 4.076,0 0,1.786 -4.076,0 0,-1.786 z m 0,8.409 4.076,0 0,1.782 -4.076,0 0,-1.782 z m 0,4.201 4.076,0 0,1.786 -4.076,0 0,-1.786 z m 0,4.207 4.076,0 0,1.788 -4.076,0 0,-1.788 z m -6.369,-29.432 4.078,0 0,1.784 -4.078,0 0,-1.784 z m 0,4.206 4.078,0 0,1.787 -4.078,0 0,-1.787 z m 0,8.409 4.078,0 0,1.786 -4.078,0 0,-1.786 z m 0,4.201 4.078,0 0,1.787 -4.078,0 0,-1.787 z m 0,4.208 4.078,0 0,1.782 -4.078,0 0,-1.782 z m 0,4.201 4.078,0 0,1.786 -4.078,0 0,-1.786 z m 0,8.411 4.078,0 0,1.785 -4.078,0 0,-1.785 z m 0,4.206 4.078,0 0,1.782 -4.078,0 0,-1.782 z m -3.06,10.83 1.531,0 0,3.309 -1.531,0 0,-3.309 z m -3.823,0 1.531,0 0,3.309 -1.531,0 0,-3.309 z m 0,4.711 1.531,0 0,3.313 -1.531,0 0,-3.313 z m -3.818,-4.711 1.529,0 0,3.309 -1.529,0 0,-3.309 z m 0,4.711 1.529,0 0,3.313 -1.529,0 0,-3.313 z m 0,4.71 1.529,0 0,3.314 -1.529,0 0,-3.314 z m -3.824,-9.421 1.53,0 0,3.309 -1.53,0 0,-3.309 z m 0,4.711 1.53,0 0,3.313 -1.53,0 0,-3.313 z m 0,4.71 1.53,0 0,3.314 -1.53,0 0,-3.314 z m 0,4.718 1.53,0 0,3.313 -1.53,0 0,-3.313 z m 0,4.715 1.53,0 0,3.313 -1.53,0 0,-3.313 z m 0,4.711 1.53,0 0,3.315 -1.53,0 0,-3.315 z m -22.35,-74.364 1.486,0 0,2.055 -1.486,0 0,-2.055 z m 0,6.46 1.486,0 0,2.626 -1.486,0 0,-2.626 z m -2.572,-6.46 1.486,0 0,2.055 -1.486,0 0,-2.055 z m 0,2.858 1.486,0 0,2.625 -1.486,0 0,-2.625 z m 0,3.602 1.486,0 0,2.626 -1.486,0 0,-2.626 z m -2.975,0 1.487,0 0,2.626 -1.487,0 0,-2.626 z m 0,3.372 1.487,0 0,2.629 -1.487,0 0,-2.629 z m -2.971,-3.372 1.486,0 0,2.626 -1.486,0 0,-2.626 z m 0,3.372 1.486,0 0,2.629 -1.486,0 0,-2.629 z m 0,3.372 1.486,0 0,2.632 -1.486,0 0,-2.632 z m 0,3.374 1.486,0 0,2.63 -1.486,0 0,-2.63 z m 0,3.375 1.486,0 0,2.629 -1.486,0 0,-2.629 z m 0,3.372 1.486,0 0,2.629 -1.486,0 0,-2.629 z m 0,3.375 1.486,0 0,2.629 -1.486,0 0,-2.629 z m 0,3.372 1.486,0 0,2.627 -1.486,0 0,-2.627 z m 0,3.374 1.486,0 0,2.625 -1.486,0 0,-2.625 z m 0,3.368 1.486,0 0,2.635 -1.486,0 0,-2.635 z m 0,3.377 1.486,0 0,2.627 -1.486,0 0,-2.627 z m 0,3.374 1.486,0 0,2.629 -1.486,0 0,-2.629 z m 0,3.372 1.486,0 0,2.629 -1.486,0 0,-2.629 z m 0,3.375 1.486,0 0,2.627 -1.486,0 0,-2.627 z m 0,3.372 1.486,0 0,2.632 -1.486,0 0,-2.632 z m 0,3.372 1.486,0 0,2.627 -1.486,0 0,-2.627 z m 0,3.375 1.486,0 0,2.629 -1.486,0 0,-2.629 z m 0,3.37 1.486,0 0,2.634 -1.486,0 0,-2.634 z m -71.581,-25.782 1.599,0 0,1.602 -1.599,0 0,-1.602 z m 0,3.657 1.599,0 0,1.604 -1.599,0 0,-1.604 z m 0,3.661 1.599,0 0,1.606 -1.599,0 0,-1.606 z m 0,3.659 1.599,0 0,1.604 -1.599,0 0,-1.604 z m 0,3.66 1.599,0 0,1.601 -1.599,0 0,-1.601 z m 0,3.66 1.599,0 0,1.599 -1.599,0 0,-1.599 z m 0,3.656 1.599,0 0,1.6 -1.599,0 0,-1.6 z m -12.809,-30.357 -4.344,0 0,-1.946 4.344,0 0,1.946 z m -4.349,-5.431 4.292,0 0,1.94 -4.292,0 0,-1.94 z m -12.511,0 4.116,0 0,1.94 -4.116,0 0,-1.94 z m -0.178,3.485 4.344,0 0,1.946 -4.344,0 0,-1.946 z m 0,3.487 4.344,0 0,1.946 -4.344,0 0,-1.946 z m 0,3.489 4.344,0 0,1.944 -4.344,0 0,-1.944 z m 0,3.487 4.344,0 0,1.948 -4.344,0 0,-1.948 z m 0,3.49 4.344,0 0,1.943 -4.344,0 0,-1.943 z m 0,3.488 4.344,0 0,1.943 -4.344,0 0,-1.943 z m 0,3.487 4.344,0 0,1.941 -4.344,0 0,-1.941 z m 0,3.486 4.344,0 0,1.948 -4.344,0 0,-1.948 z m 0,3.49 4.344,0 0,1.943 -4.344,0 0,-1.943 z m 0,3.485 4.344,0 0,1.945 -4.344,0 0,-1.945 z m 0,3.489 4.344,0 0,1.948 -4.344,0 0,-1.948 z m -11.353,-59.226 2.608,0 0,2.607 -2.608,0 0,-2.607 z m 0,7.018 2.608,0 0,2.611 -2.608,0 0,-2.611 z m 0,7.023 2.608,0 0,2.609 -2.608,0 0,-2.609 z m 0,7.021 2.608,0 0,2.609 -2.608,0 0,-2.609 z m -3.511,-21.062 2.604,0 0,2.607 -2.604,0 0,-2.607 z m 0,3.51 2.604,0 0,2.607 -2.604,0 0,-2.607 z m 0,10.531 2.604,0 0,2.609 -2.604,0 0,-2.609 z m 0,3.508 2.604,0 0,2.61 -2.604,0 0,-2.61 z m -3.509,-14.039 2.606,0 0,2.607 -2.606,0 0,-2.607 z m 0,7.023 2.606,0 0,2.604 -2.606,0 0,-2.604 z m 0,3.508 2.606,0 0,2.609 -2.606,0 0,-2.609 z m -3.513,-14.041 2.611,0 0,2.607 -2.611,0 0,-2.607 z m 0,7.018 2.611,0 0,2.611 -2.611,0 0,-2.611 z m -3.512,-7.018 2.608,0 0,2.607 -2.608,0 0,-2.607 z m 0,3.51 2.608,0 0,2.607 -2.608,0 0,-2.607 z m -3.507,-3.51 2.608,0 0,2.607 -2.608,0 0,-2.607 z m -3.511,3.51 2.606,0 0,2.607 -2.606,0 0,-2.607 z m -7.022,-3.51 2.605,0 0,2.607 -2.605,0 0,-2.607 z m -17.931,-8.133 1.487,0 0,1.323 -1.487,0 0,-1.323 z m 0,2.839 1.487,0 0,1.323 -1.487,0 0,-1.323 z m 0,2.837 1.487,0 0,1.327 -1.487,0 0,-1.327 z m 0,3.256 1.487,0 0,1.325 -1.487,0 0,-1.325 z m 0,2.835 1.487,0 0,1.329 -1.487,0 0,-1.329 z m 0,2.841 1.487,0 0,1.322 -1.487,0 0,-1.322 z m 0,3.254 1.487,0 0,1.325 -1.487,0 0,-1.325 z m 0,2.84 1.487,0 0,1.323 -1.487,0 0,-1.323 z m 0,2.84 1.487,0 0,1.322 -1.487,0 0,-1.322 z m 0,3.252 1.487,0 0,1.324 -1.487,0 0,-1.324 z m 0,2.84 1.487,0 0,1.323 -1.487,0 0,-1.323 z m 0,2.837 1.487,0 0,1.325 -1.487,0 0,-1.325 z m 0,3.258 1.487,0 0,1.322 -1.487,0 0,-1.322 z m 0,2.837 1.487,0 0,1.325 -1.487,0 0,-1.325 z m 0,2.835 1.487,0 0,1.327 -1.487,0 0,-1.327 z m 0,3.256 1.487,0 0,1.326 -1.487,0 0,-1.326 z m 0,2.839 1.487,0 0,1.323 -1.487,0 0,-1.323 z m 0,2.84 1.487,0 0,1.323 -1.487,0 0,-1.323 z m 0,3.253 1.487,0 0,1.322 -1.487,0 0,-1.322 z m 0,2.84 1.487,0 0,1.323 -1.487,0 0,-1.323 z m 0,2.839 1.487,0 0,1.323 -1.487,0 0,-1.323 z m -3.981,-59.268 1.487,0 0,1.323 -1.487,0 0,-1.323 z m 0,2.839 1.487,0 0,1.323 -1.487,0 0,-1.323 z m 0,2.837 1.487,0 0,1.327 -1.487,0 0,-1.327 z m 0,3.256 1.487,0 0,1.325 -1.487,0 0,-1.325 z m 0,2.835 1.487,0 0,1.329 -1.487,0 0,-1.329 z m 0,2.841 1.487,0 0,1.322 -1.487,0 0,-1.322 z m 0,3.254 1.487,0 0,1.325 -1.487,0 0,-1.325 z m 0,2.84 1.487,0 0,1.323 -1.487,0 0,-1.323 z m 0,2.84 1.487,0 0,1.322 -1.487,0 0,-1.322 z m 0,3.252 1.487,0 0,1.324 -1.487,0 0,-1.324 z m 0,2.84 1.487,0 0,1.323 -1.487,0 0,-1.323 z m 0,2.837 1.487,0 0,1.325 -1.487,0 0,-1.325 z m 0,3.258 1.487,0 0,1.322 -1.487,0 0,-1.322 z m 0,2.837 1.487,0 0,1.325 -1.487,0 0,-1.325 z m 0,2.835 1.487,0 0,1.327 -1.487,0 0,-1.327 z m 0,3.256 1.487,0 0,1.326 -1.487,0 0,-1.326 z m 0,2.839 1.487,0 0,1.323 -1.487,0 0,-1.323 z m 0,2.84 1.487,0 0,1.323 -1.487,0 0,-1.323 z m 0,3.253 1.487,0 0,1.322 -1.487,0 0,-1.322 z m 0,2.84 1.487,0 0,1.323 -1.487,0 0,-1.323 z m 0,2.839 1.487,0 0,1.323 -1.487,0 0,-1.323 z m -3.974,-59.268 1.481,0 0,1.323 -1.481,0 0,-1.323 z m 0,2.839 1.481,0 0,1.323 -1.481,0 0,-1.323 z m 0,2.837 1.481,0 0,1.327 -1.481,0 0,-1.327 z m 0,3.256 1.481,0 0,1.325 -1.481,0 0,-1.325 z m 0,2.835 1.481,0 0,1.329 -1.481,0 0,-1.329 z m 0,2.841 1.481,0 0,1.322 -1.481,0 0,-1.322 z m 0,3.254 1.481,0 0,1.325 -1.481,0 0,-1.325 z m 0,2.84 1.481,0 0,1.323 -1.481,0 0,-1.323 z m 0,2.84 1.481,0 0,1.322 -1.481,0 0,-1.322 z m 0,3.252 1.481,0 0,1.324 -1.481,0 0,-1.324 z m 0,2.84 1.481,0 0,1.323 -1.481,0 0,-1.323 z m 0,2.837 1.481,0 0,1.325 -1.481,0 0,-1.325 z m 0,3.258 1.481,0 0,1.322 -1.481,0 0,-1.322 z m 0,2.837 1.481,0 0,1.325 -1.481,0 0,-1.325 z m 0,2.835 1.481,0 0,1.327 -1.481,0 0,-1.327 z m 0,3.256 1.481,0 0,1.326 -1.481,0 0,-1.326 z m 0,2.839 1.481,0 0,1.323 -1.481,0 0,-1.323 z m 0,2.84 1.481,0 0,1.323 -1.481,0 0,-1.323 z m 0,3.253 1.481,0 0,1.322 -1.481,0 0,-1.322 z m 0,2.84 1.481,0 0,1.323 -1.481,0 0,-1.323 z m 0,2.839 1.481,0 0,1.323 -1.481,0 0,-1.323 z m -3.982,-59.268 1.484,0 0,1.323 -1.484,0 0,-1.323 z m 0,2.839 1.484,0 0,1.323 -1.484,0 0,-1.323 z m 0,2.837 1.484,0 0,1.327 -1.484,0 0,-1.327 z m 0,3.256 1.484,0 0,1.325 -1.484,0 0,-1.325 z m 0,2.835 1.484,0 0,1.329 -1.484,0 0,-1.329 z m 0,2.841 1.484,0 0,1.322 -1.484,0 0,-1.322 z m 0,3.254 1.484,0 0,1.325 -1.484,0 0,-1.325 z m 0,2.84 1.484,0 0,1.323 -1.484,0 0,-1.323 z m 0,2.84 1.484,0 0,1.322 -1.484,0 0,-1.322 z m 0,3.252 1.484,0 0,1.324 -1.484,0 0,-1.324 z m 0,2.84 1.484,0 0,1.323 -1.484,0 0,-1.323 z m 0,2.837 1.484,0 0,1.325 -1.484,0 0,-1.325 z m 0,3.258 1.484,0 0,1.322 -1.484,0 0,-1.322 z m 0,2.837 1.484,0 0,1.325 -1.484,0 0,-1.325 z m 0,2.835 1.484,0 0,1.327 -1.484,0 0,-1.327 z m 0,3.256 1.484,0 0,1.326 -1.484,0 0,-1.326 z m 0,2.839 1.484,0 0,1.323 -1.484,0 0,-1.323 z m 0,2.84 1.484,0 0,1.323 -1.484,0 0,-1.323 z m 0,3.253 1.484,0 0,1.322 -1.484,0 0,-1.322 z m 0,2.84 1.484,0 0,1.323 -1.484,0 0,-1.323 z m 0,2.839 1.484,0 0,1.323 -1.484,0 0,-1.323 z m -3.979,-59.268 1.485,0 0,1.323 -1.485,0 0,-1.323 z m 0,2.839 1.485,0 0,1.323 -1.485,0 0,-1.323 z m 0,2.837 1.485,0 0,1.327 -1.485,0 0,-1.327 z m 0,3.256 1.485,0 0,1.325 -1.485,0 0,-1.325 z m 0,2.835 1.485,0 0,1.329 -1.485,0 0,-1.329 z m 0,2.841 1.485,0 0,1.322 -1.485,0 0,-1.322 z m 0,3.254 1.485,0 0,1.325 -1.485,0 0,-1.325 z m 0,2.84 1.485,0 0,1.323 -1.485,0 0,-1.323 z m 0,2.84 1.485,0 0,1.322 -1.485,0 0,-1.322 z m 0,3.252 1.485,0 0,1.324 -1.485,0 0,-1.324 z m 0,2.84 1.485,0 0,1.323 -1.485,0 0,-1.323 z m 0,2.837 1.485,0 0,1.325 -1.485,0 0,-1.325 z m 0,3.258 1.485,0 0,1.322 -1.485,0 0,-1.322 z m 0,2.837 1.485,0 0,1.325 -1.485,0 0,-1.325 z m 0,2.835 1.485,0 0,1.327 -1.485,0 0,-1.327 z m 0,3.256 1.485,0 0,1.326 -1.485,0 0,-1.326 z m 0,2.839 1.485,0 0,1.323 -1.485,0 0,-1.323 z m 0,2.84 1.485,0 0,1.323 -1.485,0 0,-1.323 z m 0,3.253 1.485,0 0,1.322 -1.485,0 0,-1.322 z m 0,2.84 1.485,0 0,1.323 -1.485,0 0,-1.323 z m 0,2.839 1.485,0 0,1.323 -1.485,0 0,-1.323 z m -3.983,-59.268 1.487,0 0,1.323 -1.487,0 0,-1.323 z m 0,2.839 1.487,0 0,1.323 -1.487,0 0,-1.323 z m 0,2.837 1.487,0 0,1.327 -1.487,0 0,-1.327 z m 0,3.256 1.487,0 0,1.325 -1.487,0 0,-1.325 z m 0,2.835 1.487,0 0,1.329 -1.487,0 0,-1.329 z m 0,2.841 1.487,0 0,1.322 -1.487,0 0,-1.322 z m 0,3.254 1.487,0 0,1.325 -1.487,0 0,-1.325 z m 0,2.84 1.487,0 0,1.323 -1.487,0 0,-1.323 z m 0,2.84 1.487,0 0,1.322 -1.487,0 0,-1.322 z m 0,3.252 1.487,0 0,1.324 -1.487,0 0,-1.324 z m 0,2.84 1.487,0 0,1.323 -1.487,0 0,-1.323 z m 0,2.837 1.487,0 0,1.325 -1.487,0 0,-1.325 z m 0,3.258 1.487,0 0,1.322 -1.487,0 0,-1.322 z m 0,2.837 1.487,0 0,1.325 -1.487,0 0,-1.325 z m 0,2.835 1.487,0 0,1.327 -1.487,0 0,-1.327 z m 0,3.256 1.487,0 0,1.326 -1.487,0 0,-1.326 z m 0,2.839 1.487,0 0,1.323 -1.487,0 0,-1.323 z m 0,2.84 1.487,0 0,1.323 -1.487,0 0,-1.323 z m 0,3.253 1.487,0 0,1.322 -1.487,0 0,-1.322 z m 0,2.84 1.487,0 0,1.323 -1.487,0 0,-1.323 z m 0,2.839 1.487,0 0,1.323 -1.487,0 0,-1.323 z m -3.976,-59.268 1.486,0 0,1.323 -1.486,0 0,-1.323 z m 0,2.839 1.486,0 0,1.323 -1.486,0 0,-1.323 z m 0,2.837 1.486,0 0,1.327 -1.486,0 0,-1.327 z m 0,3.256 1.486,0 0,1.325 -1.486,0 0,-1.325 z m 0,2.835 1.486,0 0,1.329 -1.486,0 0,-1.329 z m 0,2.841 1.486,0 0,1.322 -1.486,0 0,-1.322 z m 0,3.254 1.486,0 0,1.325 -1.486,0 0,-1.325 z m 0,2.84 1.486,0 0,1.323 -1.486,0 0,-1.323 z m 0,2.84 1.486,0 0,1.322 -1.486,0 0,-1.322 z m 0,3.252 1.486,0 0,1.324 -1.486,0 0,-1.324 z m 0,2.84 1.486,0 0,1.323 -1.486,0 0,-1.323 z m 0,2.837 1.486,0 0,1.325 -1.486,0 0,-1.325 z m 0,3.258 1.486,0 0,1.322 -1.486,0 0,-1.322 z m 0,2.837 1.486,0 0,1.325 -1.486,0 0,-1.325 z m 0,2.835 1.486,0 0,1.327 -1.486,0 0,-1.327 z m 0,3.256 1.486,0 0,1.326 -1.486,0 0,-1.326 z m 0,2.839 1.486,0 0,1.323 -1.486,0 0,-1.323 z m 0,2.84 1.486,0 0,1.323 -1.486,0 0,-1.323 z m 0,3.253 1.486,0 0,1.322 -1.486,0 0,-1.322 z m 0,2.84 1.486,0 0,1.323 -1.486,0 0,-1.323 z m 0,2.839 1.486,0 0,1.323 -1.486,0 0,-1.323 z m -27.76,-88.765 3.311,0 0,2.038 -3.311,0 0,-2.038 z m 0,3.314 3.311,0 0,2.039 -3.311,0 0,-2.039 z m 0,3.312 3.311,0 0,2.038 -3.311,0 0,-2.038 z m 0,3.313 3.311,0 0,2.036 -3.311,0 0,-2.036 z m 0,3.309 3.311,0 0,2.04 -3.311,0 0,-2.04 z m 0,3.313 3.311,0 0,2.041 -3.311,0 0,-2.041 z m -17.096,22.285 25.287,0 0,1.11 -25.287,0 0,-1.11 z m 0,1.913 25.287,0 0,1.113 -25.287,0 0,-1.113 z m 0,1.914 25.287,0 0,1.112 -25.287,0 0,-1.112 z m 0,1.912 25.287,0 0,1.112 -25.287,0 0,-1.112 z m 0,1.915 25.287,0 0,1.111 -25.287,0 0,-1.111 z m 0,1.91 25.287,0 0,1.112 -25.287,0 0,-1.112 z m 0,1.914 25.287,0 0,1.112 -25.287,0 0,-1.112 z m 0,1.908 25.287,0 0,1.112 -25.287,0 0,-1.112 z m 0,1.917 25.287,0 0,1.112 -25.287,0 0,-1.112 z m 0,1.914 25.287,0 0,1.112 -25.287,0 0,-1.112 z m 0,5.163 25.287,0 0,1.113 -25.287,0 0,-1.113 z m 0,1.914 25.287,0 0,1.112 -25.287,0 0,-1.112 z m 0,1.916 25.287,0 0,1.107 -25.287,0 0,-1.107 z m 0,1.911 25.287,0 0,1.111 -25.287,0 0,-1.111 z m 0,1.912 25.287,0 0,1.112 -25.287,0 0,-1.112 z m 0,1.912 25.287,0 0,1.112 -25.287,0 0,-1.112 z m 0,1.915 25.287,0 0,1.108 -25.287,0 0,-1.108 z m 0,1.907 25.287,0 0,1.112 -25.287,0 0,-1.112 z m 0,1.916 25.287,0 0,1.112 -25.287,0 0,-1.112 z m 0,1.916 25.287,0 0,1.111 -25.287,0 0,-1.111 z m -83.712,-39.232 0.963,0 0.065,0.479 0,34.253 -1.028,0 0,-34.732 z m -0.617,0.479 0,34.253 -1.026,0 0,-34.732 0.964,0 0.062,0.479 z m -1.76,-24.559 1.043,0 0,1.544 -1.043,0 0,-1.544 z m 0,3.033 1.043,0 0,1.545 -1.043,0 0,-1.545 z m 0,3.037 1.043,0 0,1.541 -1.043,0 0,-1.541 z m 0,3.035 1.043,0 0,1.535 -1.043,0 0,-1.535 z m 0,3.03 1.043,0 0,1.545 -1.043,0 0,-1.545 z m -0.913,11.945 0.964,0 0.064,0.479 0,34.253 -1.028,0 0,-34.732 z m -1.642,0 0.964,0 0.064,0.479 0,25.547 -1.028,0 0,-26.026 z m -1.646,0 0.964,0 0.064,0.479 0,25.547 -1.028,0 0,-26.026 z m -7.456,-39.609 1.167,0 0,1.043 -1.167,0 0,-1.043 z m 0,2.231 1.167,0 0,1.043 -1.167,0 0,-1.043 z m 0,2.23 1.167,0 0,1.041 -1.167,0 0,-1.041 z m -3.124,-4.461 1.167,0 0,1.043 -1.167,0 0,-1.043 z m 0,2.231 1.167,0 0,1.043 -1.167,0 0,-1.043 z m 0,2.23 1.167,0 0,1.041 -1.167,0 0,-1.041 z m -3.125,-4.461 1.163,0 0,1.043 -1.163,0 0,-1.043 z m 0,2.231 1.163,0 0,1.043 -1.163,0 0,-1.043 z m 0,2.23 1.163,0 0,1.041 -1.163,0 0,-1.041 z m -3.127,-4.461 1.166,0 0,1.043 -1.166,0 0,-1.043 z m 0,2.231 1.166,0 0,1.043 -1.166,0 0,-1.043 z m 0,2.23 1.166,0 0,1.041 -1.166,0 0,-1.041 z m -3.126,-4.461 1.167,0 0,1.043 -1.167,0 0,-1.043 z m 0,2.231 1.167,0 0,1.043 -1.167,0 0,-1.043 z m 0,2.23 1.167,0 0,1.041 -1.167,0 0,-1.041 z m -3.126,-4.461 1.168,0 0,1.043 -1.168,0 0,-1.043 z m 0,2.231 1.168,0 0,1.043 -1.168,0 0,-1.043 z m 0,2.23 1.168,0 0,1.041 -1.168,0 0,-1.041 z m -3.126,-4.461 1.167,0 0,1.043 -1.167,0 0,-1.043 z m 0,2.231 1.167,0 0,1.043 -1.167,0 0,-1.043 z m 0,2.23 1.167,0 0,1.041 -1.167,0 0,-1.041 z m -3.128,-4.461 1.168,0 0,1.043 -1.168,0 0,-1.043 z m 0,2.231 1.168,0 0,1.043 -1.168,0 0,-1.043 z m 0,2.23 1.168,0 0,1.041 -1.168,0 0,-1.041 z m 0,2.231 1.168,0 0,1.041 -1.168,0 0,-1.041 z m 0,2.228 1.168,0 0,1.041 -1.168,0 0,-1.041 z m -3.123,-8.92 1.165,0 0,1.043 -1.165,0 0,-1.043 z m 0,2.231 1.165,0 0,1.043 -1.165,0 0,-1.043 z m 0,2.23 1.165,0 0,1.041 -1.165,0 0,-1.041 z m 0,2.231 1.165,0 0,1.041 -1.165,0 0,-1.041 z m 0,2.228 1.165,0 0,1.041 -1.165,0 0,-1.041 z m 0,2.229 1.165,0 0,1.043 -1.165,0 0,-1.043 z m 0,2.231 1.165,0 0,1.043 -1.165,0 0,-1.043 z m 0,2.23 1.165,0 0,1.038 -1.165,0 0,-1.038 z m -7.434,-58.758 1.127,0 0.094,0 1.125,0 0,67.401 -1.125,0 -0.094,0 -1.127,0 0,-67.401 z m -2.352,0 1.219,0 0,63.839 -1.219,0 0,-63.839 z m -2.255,0 1.221,0 0,62.626 -1.221,0 0,-62.626 z m -1.352,0 1.22,0 0,61.863 -1.22,0 0,-61.863 z m -11.125,79.09 2.032,0 0,2.162 -2.032,0 0,-2.162 z m 0,4.636 2.032,0 0,2.162 -2.032,0 0,-2.162 z m 0,4.638 2.032,0 0,2.162 -2.032,0 0,-2.162 z m 0,5.318 2.032,0 0,2.166 -2.032,0 0,-2.166 z m 0,4.638 2.032,0 0,2.166 -2.032,0 0,-2.166 z m 0,4.636 2.032,0 0,2.166 -2.032,0 0,-2.166 z m 0,5.32 2.032,0 0,2.166 -2.032,0 0,-2.166 z m 0,4.636 2.032,0 0,2.166 -2.032,0 0,-2.166 z m 0,4.638 2.032,0 0,2.163 -2.032,0 0,-2.163 z m 0,5.317 2.032,0 0,2.164 -2.032,0 0,-2.164 z m 0,4.638 2.032,0 0,2.163 -2.032,0 0,-2.163 z m 0,4.64 2.032,0 0,2.162 -2.032,0 0,-2.162 z m 0,5.315 2.032,0 0,2.167 -2.032,0 0,-2.167 z m 0,4.64 2.032,0 0,2.167 -2.032,0 0,-2.167 z m 0,4.639 2.032,0 0,2.162 -2.032,0 0,-2.162 z m 0,5.315 2.032,0 0,2.164 -2.032,0 0,-2.164 z m -5.444,-72.964 2.031,0 0,2.162 -2.031,0 0,-2.162 z m 0,4.636 2.031,0 0,2.162 -2.031,0 0,-2.162 z m 0,4.638 2.031,0 0,2.162 -2.031,0 0,-2.162 z m 0,5.318 2.031,0 0,2.166 -2.031,0 0,-2.166 z m 0,4.638 2.031,0 0,2.166 -2.031,0 0,-2.166 z m 0,4.636 2.031,0 0,2.166 -2.031,0 0,-2.166 z m 0,5.32 2.031,0 0,2.166 -2.031,0 0,-2.166 z m 0,4.636 2.031,0 0,2.166 -2.031,0 0,-2.166 z m 0,4.638 2.031,0 0,2.163 -2.031,0 0,-2.163 z m 0,5.317 2.031,0 0,2.164 -2.031,0 0,-2.164 z m 0,4.638 2.031,0 0,2.163 -2.031,0 0,-2.163 z m 0,4.64 2.031,0 0,2.162 -2.031,0 0,-2.162 z m 0,5.315 2.031,0 0,2.167 -2.031,0 0,-2.167 z m 0,4.64 2.031,0 0,2.167 -2.031,0 0,-2.167 z m 0,4.639 2.031,0 0,2.162 -2.031,0 0,-2.162 z m 0,5.315 2.031,0 0,2.164 -2.031,0 0,-2.164 z m -5.445,-72.964 2.034,0 0,2.162 -2.034,0 0,-2.162 z m 0,4.636 2.034,0 0,2.162 -2.034,0 0,-2.162 z m 0,4.638 2.034,0 0,2.162 -2.034,0 0,-2.162 z m 0,5.318 2.034,0 0,2.166 -2.034,0 0,-2.166 z m 0,4.638 2.034,0 0,2.166 -2.034,0 0,-2.166 z m 0,4.636 2.034,0 0,2.166 -2.034,0 0,-2.166 z m 0,5.32 2.034,0 0,2.166 -2.034,0 0,-2.166 z m 0,4.636 2.034,0 0,2.166 -2.034,0 0,-2.166 z m 0,4.638 2.034,0 0,2.163 -2.034,0 0,-2.163 z m 0,5.317 2.034,0 0,2.164 -2.034,0 0,-2.164 z m 0,4.638 2.034,0 0,2.163 -2.034,0 0,-2.163 z m 0,4.64 2.034,0 0,2.162 -2.034,0 0,-2.162 z m 0,5.315 2.034,0 0,2.167 -2.034,0 0,-2.167 z m 0,4.64 2.034,0 0,2.167 -2.034,0 0,-2.167 z m 0,4.639 2.034,0 0,2.162 -2.034,0 0,-2.162 z m 0,5.315 2.034,0 0,2.164 -2.034,0 0,-2.164 z m -5.445,-72.964 2.034,0 0,2.162 -2.034,0 0,-2.162 z m 0,4.636 2.034,0 0,2.162 -2.034,0 0,-2.162 z m 0,4.638 2.034,0 0,2.162 -2.034,0 0,-2.162 z m 0,5.318 2.034,0 0,2.166 -2.034,0 0,-2.166 z m 0,4.638 2.034,0 0,2.166 -2.034,0 0,-2.166 z m 0,4.636 2.034,0 0,2.166 -2.034,0 0,-2.166 z m 0,5.32 2.034,0 0,2.166 -2.034,0 0,-2.166 z m 0,4.636 2.034,0 0,2.166 -2.034,0 0,-2.166 z m 0,4.638 2.034,0 0,2.163 -2.034,0 0,-2.163 z m 0,5.317 2.034,0 0,2.164 -2.034,0 0,-2.164 z m 0,4.638 2.034,0 0,2.163 -2.034,0 0,-2.163 z m 0,4.64 2.034,0 0,2.162 -2.034,0 0,-2.162 z m 0,5.315 2.034,0 0,2.167 -2.034,0 0,-2.167 z m 0,4.64 2.034,0 0,2.167 -2.034,0 0,-2.167 z m 0,4.639 2.034,0 0,2.162 -2.034,0 0,-2.162 z m 0,5.315 2.034,0 0,2.164 -2.034,0 0,-2.164 z m -15.822,-74.874 7.7,0 0,1.744 -7.7,0 0,-1.744 z m 0,4.233 7.7,0 0,1.742 -7.7,0 0,-1.742 z m 0,4.684 7.7,0 0,1.724 -7.7,0 0,-1.724 z m 0,4.645 7.7,0 0,1.744 -7.7,0 0,-1.744 z m 7.959,5.93 0,0.965 -0.481,0.084 -24.805,0 0,-0.962 0.481,-0.086 24.805,0 z m -18.192,-30.739 0,-1.146 2.419,0 0,1.146 -2.419,0 z m 2.419,1.464 0,1.147 -2.419,0 0,-1.147 2.419,0 z m -2.419,-4.072 0,-1.145 2.419,0 0,1.145 -2.419,0 z m 0,-7.816 0,-1.151 2.419,0 0,1.151 -2.419,0 z m 0,-2.61 0,-1.146 2.419,0 0,1.146 -2.419,0 z m 0,-2.608 0,-1.144 2.419,0 0,1.144 -2.419,0 z m 0,-2.604 0,-1.146 2.419,0 0,1.146 -2.419,0 z m 0,-2.608 0,-1.143 2.419,0 0,1.143 -2.419,0 z m 0,-12.991 0,-1.144 2.419,0 0,1.144 -2.419,0 z m 0,-5.21 0,-1.153 2.419,0 0,1.153 -2.419,0 z m 0,-2.61 0,-1.147 2.419,0 0,1.147 -2.419,0 z m 0,-2.608 0,-1.144 2.419,0 0,1.144 -2.419,0 z m 0,-5.26 0,-1.142 2.419,0 0,1.142 -2.419,0 z m 0,-2.604 0,-1.142 2.419,0 0,1.142 -2.419,0 z m 0.314,-1.943 0,-6.502 1.792,0 0,6.502 -1.792,0 z m -0.412,-29.43 0,-5.355 2.553,0 0,5.355 -2.553,0 z m -1.452,-10.994 5.122,0 0,2.166 -5.122,-0.105 0,-2.061 z m -1.35,12.392 2.552,0 0,11.853 -2.552,0 0,-11.853 z m -0.541,28.832 2.424,0 0,1.142 -2.424,0 0,-1.142 z m 0,2.605 2.424,0 0,1.142 -2.424,0 0,-1.142 z m 0,2.605 2.424,0 0,1.144 -2.424,0 0,-1.144 z m 0,2.607 2.424,0 0,1.149 -2.424,0 0,-1.149 z m 0,18.246 2.424,0 0,1.147 -2.424,0 0,-1.147 z m 0,2.61 2.424,0 0,1.144 -2.424,0 0,-1.144 z m 0,2.61 2.424,0 0,1.143 -2.424,0 0,-1.143 z m 0,2.604 2.424,0 0,1.146 -2.424,0 0,-1.146 z m 0,2.607 2.424,0 0,1.144 -2.424,0 0,-1.144 z m 0,2.605 2.424,0 0,1.146 -2.424,0 0,-1.146 z m 0,2.607 2.424,0 0,1.151 -2.424,0 0,-1.151 z m 0,2.609 2.424,0 0,1.147 -2.424,0 0,-1.147 z m 0,10.429 2.424,0 0,1.147 -2.424,0 0,-1.147 z m 0,2.604 2.424,0 0,1.146 -2.424,0 0,-1.146 z M 419.5,547.422 l 4.128,0 0,0.066 -4.128,0 0,-0.066 z m -1.243,1.269 6.301,0 0,0.062 -6.301,0 0,-0.062 z m -1.198,1.264 8.674,0 0,0.062 -8.674,0 0,-0.062 z m -1.152,1.265 10.91,0 0,0.066 -10.91,0 0,-0.066 z m -1.229,1.266 13.296,0 0,0.066 -13.296,0 0,-0.066 z m -1.267,1.267 15.646,0 0,0.063 -15.646,0 0,-0.063 z m -0.739,7.199 c 0,0 1.653,-3.109 7.901,-3.738 l 0,-0.064 c 0.139,0.009 0.269,0.02 0.406,0.028 0.135,-0.009 0.268,-0.019 0.407,-0.028 l 0,0.064 c 6.243,0.628 7.9,3.738 7.9,3.738 l 0,1.532 -5.384,-0.064 0,-1.487 -1.179,0 0,-1.803 -1.337,0 -0.813,0 -1.335,0 0,1.803 -1.178,0 0,1.487 -5.388,0.064 0,-1.532 z m -0.144,2.91 5.227,0 0,5.358 -5.227,0 0,-5.358 z m -6.354,-5.13 5.124,0 0,2.166 -5.124,-0.105 0,-2.061 z m -0.908,26.022 1.79,0 0,6.507 -1.79,0 0,-6.507 z m 0,7.9 1.79,0 0,6.502 -1.79,0 0,-6.502 z m -26.744,53.166 1.217,0 0,38.27 -1.217,0 0,-38.27 z m -3.153,-3.135 1.217,0 -0.071,46.226 -1.217,-0.017 0.071,-46.209 z m -3.16,-2.951 1.217,0.01 -0.068,49.168 -1.219,-0.017 0.07,-49.161 z m -3.16,-2.521 1.22,0 -0.068,51.698 -1.221,-0.017 0.069,-51.681 z m -3.223,70.147 0.071,-72.987 1.215,0 0,0.479 -0.068,72.992 -1.218,0 0,-0.484 z m -3.16,0 0.071,-75.727 1.218,0 0,0.485 -0.071,75.727 -1.218,0 0,-0.485 z m -3.153,0 0.068,-78.038 1.217,0 0,0.479 -0.068,78.043 -1.217,0 0,-0.484 z m -3.16,0 0.07,-80.148 1.218,0 0,0.484 -0.07,80.149 -1.218,0 0,-0.485 z m -3.156,0 0.067,-82.988 1.221,0 0,0.483 -0.068,82.989 -1.22,0 0,-0.484 z m -3.157,0 0.068,-85.513 1.219,0 0,0.483 -0.069,85.514 -1.218,0 0,-0.484 z m -3.158,6.738 0.069,-94.462 1.219,0 0,0.485 -0.071,94.465 -1.217,-0.008 0,-0.48 z m -3.157,-3.264 0.068,-93.302 1.221,0 0,0.481 -0.068,93.305 -1.221,0 0,-0.484 z m -3.157,-3.474 0.07,-92.665 1.217,0 0,0.479 -0.069,92.671 -1.218,0 0,-0.485 z m -25.187,-203.402 6.618,0.124 -3.676,32.846 c -0.736,7.355 -2.942,10.785 -2.942,10.785 l 0,-43.755 z m -4.063,-0.599 1.103,0 0,3.4 -1.188,0 0.085,-3.4 z m 0,4.503 1.103,0 0,3.398 -1.188,0 0.085,-3.398 z m 0,4.502 1.103,0 0,3.396 -1.188,0 0.085,-3.396 z m 0,4.5 1.103,0 0,3.397 -1.188,0 0.085,-3.397 z m 0,4.503 1.103,0 0,3.397 -1.188,0 0.085,-3.397 z m 0,4.5 1.103,0 0,3.399 -1.188,0 0.085,-3.399 z m 0,4.502 1.103,0 0,3.396 -1.188,0 0.085,-3.396 z m 0,4.499 1.103,0 0,3.399 -1.188,0 0.085,-3.399 z m -6.107,102.989 -0.213,0 0,-1.532 -1.53,0 0,1.657 -1.843,0 c 0.951,-12.2 3.586,-49.208 3.586,-49.208 l 0,49.083 z m -4.538,-111.715 c 0,0 -2.208,-15.323 -2.819,-18.263 0,0 -0.49,-3.188 -0.245,-4.289 l 6.373,0.367 0,55.4 c -0.001,0 -2.695,-28.19 -3.309,-33.215 z m -2.745,139.597 0.775,0 0,6.737 -0.775,0 0,-6.737 z m -4.648,0 0.761,0 0,6.737 -0.761,0 0,-6.737 z m -4.684,0 0.78,0 0,6.737 -0.78,0 0,-6.737 z m -4.232,0 0.779,0 0,6.737 -0.779,0 0,-6.737 z m -22.185,-40.783 4.681,0 0,2.476 -4.681,0 0,-2.476 z m 0,12.911 4.681,0 0,2.475 -4.681,0 0,-2.475 z m 0,6.452 4.681,0 0,2.476 -4.681,0 0,-2.476 z m 0,12.913 4.681,0 0,2.473 -4.681,0 0,-2.473 z m 0,6.456 4.681,0 0,2.476 -4.681,0 0,-2.476 z m -21.398,-38.732 6.153,0 0,2.476 -6.153,0 0,-2.476 z m 0,25.678 6.153,0 0,2.474 -6.153,0 0,-2.474 z m 0,6.416 6.153,0 0,2.476 -6.153,0 0,-2.476 z m 0,9.628 6.153,0 0,2.475 -6.153,0 0,-2.475 z m -6.016,-41.722 4.678,0 0,2.476 -4.678,0 0,-2.476 z m 0,3.208 4.678,0 0,2.476 -4.678,0 0,-2.476 z m 0,6.42 4.678,0 0,2.475 -4.678,0 0,-2.475 z m 0,6.42 4.678,0 0,2.475 -4.678,0 0,-2.475 z m 0,6.419 4.678,0 0,2.473 -4.678,0 0,-2.473 z m 0,12.837 4.678,0 0,2.475 -4.678,0 0,-2.475 z m 0,9.63 4.678,0 0,2.473 -4.678,0 0,-2.473 z" /></g><g
       id="g3453"><polygon
         style="fill:#ff5252"
         id="polygon3455"
         points="919.523,720.459 921.729,720.459 919.523,718.349 " /><path
         style="fill:#ff5252"
         id="path3457"
         d="m 559.619,656.926 -1.136,0 0,1.067 1.136,0 0,1.198 -1.136,0 0,1.04 2.269,0 0,1.323 9.108,0 0,2.418 2.675,0 0,22.551 9.297,0 0,-2.424 -0.763,0 0,-2.16 1.912,0 0,-5.61 1.401,0 0,-5.093 2.549,0 0,-1.658 3.566,0 0,-18.346 8.794,0 0,-2.674 5.094,0 0,1.273 1.527,0 0,-1.657 5.859,0 0,4.207 3.444,0 0.825,0.827 10.385,0 0,-6.305 3.822,-0.132 2.929,0 0,-22.169 34.529,-0.503 0,25.097 27.01,0 0,2.291 2.167,0 0,1.658 3.054,0 0,32.742 2.293,0 0,-19.11 -1.02,-1.659 1.02,-0.377 0,-4.334 -1.144,-2.168 4.716,0 0,-1.017 2.674,0 0,-3.313 2.036,0 0,3.313 6.117,0 0,-6.498 12.105,0 0,6.623 12.865,0 -1.4,2.935 0,3.691 5.477,0 -1.783,3.823 0,18.728 13.25,0 0,-6.496 7.644,0 0,-1.275 3.694,0 0,0.761 2.548,0 0,6.882 16.433,0 0,8.534 8.879,0 0,-15.586 21.996,0 0,14.313 2.633,0 0,-5.986 -1.4,-2.164 c 0,0 31.658,0.442 31.214,0 -0.445,-0.448 0,-8.443 0,-8.443 l -1.527,0 0,-2.674 1.655,0 0,-2.68 -1.145,0 0,-3.567 5.039,0 C 788.281,620.551 764.245,602.205 750.842,593.15 726.97,577.019 720.515,568.738 699.06,575.397 c -17.849,5.541 -106.377,61.27 -139.439,80.681 l 0,0.848 z" /></g></g></svg>